<?xml version="1.0" encoding="UTF-8"?>
<svg xmlns="http://www.w3.org/2000/svg" version="1.1" width="100" height="100" viewBox="0 0 100 100"><rect x="0" y="0" width="100" height="100" fill="#ffffff"/><g transform="scale(3.448)"><g transform="translate(0,0)"><path fill-rule="evenodd" d="M9 0L9 1L8 1L8 2L9 2L9 3L8 3L8 4L10 4L10 7L11 7L11 4L12 4L12 5L13 5L13 6L12 6L12 9L14 9L14 12L15 12L15 13L18 13L18 12L15 12L15 11L19 11L19 10L20 10L20 9L21 9L21 10L22 10L22 11L21 11L21 12L20 12L20 13L19 13L19 14L20 14L20 13L22 13L22 14L21 14L21 16L20 16L20 17L18 17L18 16L19 16L19 15L18 15L18 16L17 16L17 14L14 14L14 13L12 13L12 11L13 11L13 10L11 10L11 11L10 11L10 9L11 9L11 8L6 8L6 9L5 9L5 8L0 8L0 15L2 15L2 16L1 16L1 17L0 17L0 21L1 21L1 17L2 17L2 16L4 16L4 15L5 15L5 19L8 19L8 20L10 20L10 19L8 19L8 18L9 18L9 17L7 17L7 16L8 16L8 15L7 15L7 14L6 14L6 13L7 13L7 12L6 12L6 11L8 11L8 10L9 10L9 13L8 13L8 14L9 14L9 13L10 13L10 15L11 15L11 13L12 13L12 14L13 14L13 15L12 15L12 17L13 17L13 16L14 16L14 17L15 17L15 16L14 16L14 15L16 15L16 16L17 16L17 18L15 18L15 19L14 19L14 20L15 20L15 21L12 21L12 19L13 19L13 18L11 18L11 17L10 17L10 18L11 18L11 21L10 21L10 22L11 22L11 21L12 21L12 22L13 22L13 23L12 23L12 25L13 25L13 24L14 24L14 25L15 25L15 24L14 24L14 23L16 23L16 24L17 24L17 25L18 25L18 26L19 26L19 25L18 25L18 24L17 24L17 22L19 22L19 23L20 23L20 27L19 27L19 28L22 28L22 27L23 27L23 26L24 26L24 27L26 27L26 26L24 26L24 25L27 25L27 28L24 28L24 29L27 29L27 28L28 28L28 26L29 26L29 25L27 25L27 24L25 24L25 23L27 23L27 22L29 22L29 20L28 20L28 19L27 19L27 16L28 16L28 15L27 15L27 12L28 12L28 11L27 11L27 12L25 12L25 9L26 9L26 8L25 8L25 9L24 9L24 8L23 8L23 9L22 9L22 8L20 8L20 9L19 9L19 10L15 10L15 8L13 8L13 6L14 6L14 7L15 7L15 6L16 6L16 8L17 8L17 9L18 9L18 8L17 8L17 4L18 4L18 3L17 3L17 2L19 2L19 5L20 5L20 3L21 3L21 0L18 0L18 1L17 1L17 0L16 0L16 1L14 1L14 3L13 3L13 4L12 4L12 2L13 2L13 1L11 1L11 2L10 2L10 0ZM19 1L19 2L20 2L20 1ZM10 3L10 4L11 4L11 3ZM15 3L15 4L14 4L14 5L16 5L16 4L17 4L17 3ZM8 5L8 7L9 7L9 5ZM18 6L18 7L19 7L19 6ZM20 6L20 7L21 7L21 6ZM27 8L27 9L28 9L28 10L29 10L29 9L28 9L28 8ZM1 9L1 10L2 10L2 9ZM3 9L3 10L4 10L4 9ZM6 9L6 10L7 10L7 9ZM23 9L23 12L22 12L22 13L23 13L23 14L22 14L22 17L23 17L23 18L24 18L24 19L25 19L25 21L26 21L26 20L27 20L27 19L25 19L25 18L24 18L24 17L26 17L26 16L27 16L27 15L26 15L26 13L25 13L25 12L24 12L24 9ZM1 11L1 14L2 14L2 15L4 15L4 14L2 14L2 12L5 12L5 13L6 13L6 12L5 12L5 11ZM10 12L10 13L11 13L11 12ZM23 12L23 13L24 13L24 14L25 14L25 13L24 13L24 12ZM28 13L28 14L29 14L29 13ZM6 15L6 16L7 16L7 15ZM23 15L23 16L24 16L24 15ZM6 17L6 18L7 18L7 17ZM20 17L20 18L18 18L18 19L16 19L16 20L18 20L18 21L19 21L19 20L21 20L21 19L22 19L22 18L21 18L21 17ZM28 17L28 18L29 18L29 17ZM3 18L3 19L2 19L2 21L5 21L5 20L3 20L3 19L4 19L4 18ZM6 20L6 21L7 21L7 20ZM8 21L8 23L9 23L9 21ZM15 21L15 22L17 22L17 21ZM21 21L21 24L24 24L24 21ZM22 22L22 23L23 23L23 22ZM28 23L28 24L29 24L29 23ZM8 24L8 29L12 29L12 27L13 27L13 26L11 26L11 24L10 24L10 28L9 28L9 24ZM22 25L22 26L21 26L21 27L22 27L22 26L23 26L23 25ZM15 26L15 27L14 27L14 28L15 28L15 29L18 29L18 28L15 28L15 27L16 27L16 26ZM0 0L0 7L7 7L7 0ZM1 1L1 6L6 6L6 1ZM2 2L2 5L5 5L5 2ZM22 0L22 7L29 7L29 0ZM23 1L23 6L28 6L28 1ZM24 2L24 5L27 5L27 2ZM0 22L0 29L7 29L7 22ZM1 23L1 28L6 28L6 23ZM2 24L2 27L5 27L5 24Z" fill="#000000"/></g></g></svg>
