<?xml version="1.0" encoding="UTF-8"?>
<svg xmlns="http://www.w3.org/2000/svg" version="1.1" width="100" height="100" viewBox="0 0 100 100"><rect x="0" y="0" width="100" height="100" fill="#ffffff"/><g transform="scale(3.448)"><g transform="translate(0,0)"><path fill-rule="evenodd" d="M9 0L9 1L8 1L8 2L9 2L9 3L8 3L8 4L10 4L10 7L11 7L11 4L12 4L12 5L13 5L13 6L12 6L12 9L13 9L13 10L11 10L11 11L10 11L10 9L11 9L11 8L6 8L6 9L7 9L7 10L6 10L6 11L4 11L4 13L3 13L3 15L1 15L1 14L0 14L0 15L1 15L1 16L0 16L0 21L1 21L1 18L2 18L2 20L3 20L3 21L4 21L4 20L3 20L3 19L5 19L5 20L6 20L6 21L8 21L8 23L9 23L9 24L8 24L8 29L9 29L9 28L10 28L10 29L13 29L13 28L12 28L12 27L13 27L13 26L11 26L11 25L10 25L10 26L9 26L9 24L11 24L11 23L9 23L9 22L10 22L10 21L12 21L12 22L13 22L13 23L12 23L12 25L14 25L14 28L15 28L15 29L18 29L18 28L17 28L17 27L19 27L19 26L20 26L20 25L23 25L23 26L22 26L22 27L23 27L23 29L24 29L24 27L25 27L25 28L26 28L26 29L27 29L27 28L28 28L28 26L29 26L29 23L28 23L28 24L26 24L26 23L27 23L27 22L29 22L29 20L28 20L28 19L27 19L27 16L28 16L28 15L27 15L27 12L28 12L28 11L27 11L27 12L25 12L25 9L26 9L26 8L25 8L25 9L24 9L24 8L23 8L23 9L22 9L22 8L21 8L21 6L20 6L20 7L19 7L19 5L21 5L21 2L20 2L20 4L19 4L19 5L15 5L15 4L18 4L18 3L16 3L16 2L17 2L17 1L14 1L14 0L13 0L13 1L11 1L11 2L10 2L10 0ZM18 0L18 1L21 1L21 0ZM12 2L12 4L13 4L13 5L14 5L14 6L13 6L13 8L14 8L14 10L16 10L16 11L15 11L15 12L18 12L18 11L20 11L20 12L21 12L21 13L25 13L25 15L24 15L24 16L22 16L22 15L23 15L23 14L21 14L21 15L20 15L20 14L18 14L18 15L17 15L17 16L16 16L16 17L12 17L12 15L13 15L13 16L14 16L14 14L16 14L16 13L14 13L14 14L12 14L12 13L13 13L13 12L14 12L14 11L12 11L12 13L11 13L11 12L10 12L10 13L11 13L11 18L10 18L10 19L8 19L8 18L9 18L9 16L10 16L10 14L9 14L9 13L8 13L8 12L9 12L9 10L7 10L7 11L6 11L6 12L7 12L7 13L5 13L5 14L4 14L4 15L5 15L5 14L7 14L7 15L6 15L6 16L3 16L3 17L2 17L2 16L1 16L1 17L2 17L2 18L7 18L7 19L6 19L6 20L11 20L11 18L13 18L13 19L12 19L12 21L13 21L13 20L14 20L14 18L16 18L16 17L17 17L17 18L18 18L18 17L19 17L19 16L20 16L20 17L23 17L23 18L24 18L24 19L21 19L21 18L19 18L19 19L17 19L17 20L15 20L15 21L14 21L14 22L16 22L16 21L17 21L17 24L16 24L16 23L13 23L13 24L15 24L15 26L16 26L16 27L17 27L17 26L19 26L19 25L20 25L20 24L19 24L19 22L20 22L20 21L19 21L19 20L20 20L20 19L21 19L21 20L24 20L24 19L25 19L25 21L26 21L26 20L27 20L27 19L25 19L25 18L24 18L24 17L26 17L26 16L27 16L27 15L26 15L26 13L25 13L25 12L23 12L23 11L24 11L24 10L23 10L23 11L21 11L21 8L20 8L20 10L19 10L19 7L18 7L18 6L17 6L17 8L16 8L16 6L15 6L15 5L14 5L14 4L15 4L15 3L14 3L14 2ZM10 3L10 4L11 4L11 3ZM13 3L13 4L14 4L14 3ZM8 5L8 7L9 7L9 5ZM14 6L14 8L15 8L15 6ZM0 8L0 9L4 9L4 10L5 10L5 8ZM17 8L17 9L18 9L18 8ZM27 8L27 9L28 9L28 10L29 10L29 9L28 9L28 8ZM1 10L1 11L0 11L0 13L1 13L1 12L2 12L2 11L3 11L3 10ZM7 13L7 14L8 14L8 15L7 15L7 16L6 16L6 17L7 17L7 18L8 18L8 15L9 15L9 14L8 14L8 13ZM28 13L28 14L29 14L29 13ZM17 16L17 17L18 17L18 16ZM28 17L28 18L29 18L29 17ZM17 20L17 21L18 21L18 20ZM21 21L21 24L24 24L24 21ZM22 22L22 23L23 23L23 22ZM17 24L17 25L16 25L16 26L17 26L17 25L18 25L18 24ZM24 25L24 26L25 26L25 27L26 27L26 28L27 28L27 25ZM20 27L20 28L19 28L19 29L20 29L20 28L21 28L21 29L22 29L22 28L21 28L21 27ZM0 0L0 7L7 7L7 0ZM1 1L1 6L6 6L6 1ZM2 2L2 5L5 5L5 2ZM22 0L22 7L29 7L29 0ZM23 1L23 6L28 6L28 1ZM24 2L24 5L27 5L27 2ZM0 22L0 29L7 29L7 22ZM1 23L1 28L6 28L6 23ZM2 24L2 27L5 27L5 24Z" fill="#000000"/></g></g></svg>
