<?xml version="1.0" encoding="UTF-8"?>
<svg xmlns="http://www.w3.org/2000/svg" version="1.1" width="100" height="100" viewBox="0 0 100 100"><rect x="0" y="0" width="100" height="100" fill="#ffffff"/><g transform="scale(3.448)"><g transform="translate(0,0)"><path fill-rule="evenodd" d="M8 0L8 4L9 4L9 5L8 5L8 7L9 7L9 6L10 6L10 9L11 9L11 8L12 8L12 9L13 9L13 10L14 10L14 12L13 12L13 11L12 11L12 12L11 12L11 13L10 13L10 14L11 14L11 15L8 15L8 14L6 14L6 13L8 13L8 11L9 11L9 12L10 12L10 11L11 11L11 10L9 10L9 9L8 9L8 11L7 11L7 10L6 10L6 9L7 9L7 8L4 8L4 9L3 9L3 10L1 10L1 12L0 12L0 15L1 15L1 16L0 16L0 18L2 18L2 14L1 14L1 13L2 13L2 12L3 12L3 13L5 13L5 14L4 14L4 15L3 15L3 16L4 16L4 17L3 17L3 20L0 20L0 21L4 21L4 20L5 20L5 21L8 21L8 22L9 22L9 21L12 21L12 22L11 22L11 24L9 24L9 23L8 23L8 25L9 25L9 27L8 27L8 29L9 29L9 28L10 28L10 29L12 29L12 28L13 28L13 29L15 29L15 27L16 27L16 29L18 29L18 28L19 28L19 29L22 29L22 28L24 28L24 29L25 29L25 27L26 27L26 26L27 26L27 29L28 29L28 28L29 28L29 25L28 25L28 24L27 24L27 25L25 25L25 23L27 23L27 22L25 22L25 21L26 21L26 20L22 20L22 19L21 19L21 20L20 20L20 22L19 22L19 21L18 21L18 20L19 20L19 17L20 17L20 18L21 18L21 17L20 17L20 16L19 16L19 17L18 17L18 15L19 15L19 14L17 14L17 18L18 18L18 19L16 19L16 16L15 16L15 17L14 17L14 15L16 15L16 13L18 13L18 12L19 12L19 13L20 13L20 14L21 14L21 16L23 16L23 15L24 15L24 16L25 16L25 17L24 17L24 19L27 19L27 20L28 20L28 23L29 23L29 17L28 17L28 16L29 16L29 13L28 13L28 12L29 12L29 8L25 8L25 9L24 9L24 8L23 8L23 9L22 9L22 10L23 10L23 13L20 13L20 12L19 12L19 11L17 11L17 10L16 10L16 8L15 8L15 10L14 10L14 9L13 9L13 8L12 8L12 7L13 7L13 6L12 6L12 7L11 7L11 3L10 3L10 2L9 2L9 0ZM13 0L13 1L11 1L11 2L12 2L12 5L13 5L13 4L14 4L14 5L16 5L16 7L17 7L17 9L18 9L18 8L19 8L19 9L20 9L20 10L21 10L21 9L20 9L20 8L19 8L19 6L20 6L20 7L21 7L21 4L20 4L20 3L21 3L21 2L20 2L20 1L19 1L19 0L18 0L18 1L17 1L17 0ZM14 1L14 2L13 2L13 3L14 3L14 2L16 2L16 3L15 3L15 4L16 4L16 3L17 3L17 7L18 7L18 6L19 6L19 5L20 5L20 4L18 4L18 3L17 3L17 2L16 2L16 1ZM14 6L14 7L15 7L15 6ZM0 8L0 9L2 9L2 8ZM4 9L4 10L3 10L3 12L5 12L5 13L6 13L6 12L7 12L7 11L4 11L4 10L5 10L5 9ZM23 9L23 10L24 10L24 13L23 13L23 14L24 14L24 13L26 13L26 14L25 14L25 16L26 16L26 17L25 17L25 18L27 18L27 19L28 19L28 18L27 18L27 15L28 15L28 14L27 14L27 11L28 11L28 10L24 10L24 9ZM15 11L15 13L16 13L16 12L17 12L17 11ZM21 11L21 12L22 12L22 11ZM12 12L12 13L11 13L11 14L12 14L12 13L13 13L13 14L14 14L14 13L13 13L13 12ZM5 14L5 15L4 15L4 16L5 16L5 17L4 17L4 18L7 18L7 17L6 17L6 16L8 16L8 17L9 17L9 18L8 18L8 19L5 19L5 20L8 20L8 19L9 19L9 20L12 20L12 21L13 21L13 22L15 22L15 21L16 21L16 23L14 23L14 25L15 25L15 24L16 24L16 26L18 26L18 25L19 25L19 24L20 24L20 23L19 23L19 24L18 24L18 25L17 25L17 21L16 21L16 20L15 20L15 21L13 21L13 20L14 20L14 19L15 19L15 18L13 18L13 17L12 17L12 16L13 16L13 15L12 15L12 16L10 16L10 17L9 17L9 16L8 16L8 15L6 15L6 14ZM26 14L26 15L27 15L27 14ZM10 17L10 18L9 18L9 19L10 19L10 18L11 18L11 17ZM22 17L22 18L23 18L23 17ZM12 19L12 20L13 20L13 19ZM21 21L21 24L24 24L24 21ZM22 22L22 23L23 23L23 22ZM12 23L12 24L11 24L11 25L10 25L10 26L11 26L11 27L10 27L10 28L12 28L12 27L13 27L13 28L14 28L14 27L15 27L15 26L13 26L13 25L12 25L12 24L13 24L13 23ZM20 25L20 26L19 26L19 27L20 27L20 26L21 26L21 27L23 27L23 25ZM24 25L24 27L25 27L25 25ZM27 25L27 26L28 26L28 25ZM0 0L0 7L7 7L7 0ZM1 1L1 6L6 6L6 1ZM2 2L2 5L5 5L5 2ZM22 0L22 7L29 7L29 0ZM23 1L23 6L28 6L28 1ZM24 2L24 5L27 5L27 2ZM0 22L0 29L7 29L7 22ZM1 23L1 28L6 28L6 23ZM2 24L2 27L5 27L5 24Z" fill="#000000"/></g></g></svg>
