<?xml version="1.0" encoding="UTF-8"?>
<svg xmlns="http://www.w3.org/2000/svg" version="1.1" width="100" height="100" viewBox="0 0 100 100"><rect x="0" y="0" width="100" height="100" fill="#ffffff"/><g transform="scale(3.448)"><g transform="translate(0,0)"><path fill-rule="evenodd" d="M9 0L9 1L8 1L8 2L9 2L9 3L8 3L8 4L10 4L10 7L11 7L11 4L12 4L12 5L13 5L13 6L12 6L12 9L14 9L14 12L15 12L15 13L18 13L18 12L17 12L17 11L19 11L19 10L20 10L20 9L21 9L21 12L20 12L20 13L19 13L19 14L20 14L20 13L21 13L21 14L22 14L22 16L23 16L23 15L24 15L24 16L25 16L25 13L26 13L26 15L27 15L27 16L26 16L26 17L22 17L22 18L21 18L21 19L22 19L22 20L19 20L19 21L18 21L18 20L16 20L16 19L18 19L18 18L20 18L20 17L21 17L21 16L20 16L20 17L18 17L18 16L19 16L19 15L18 15L18 16L17 16L17 14L14 14L14 13L12 13L12 11L13 11L13 10L11 10L11 11L10 11L10 9L11 9L11 8L6 8L6 9L7 9L7 10L5 10L5 8L0 8L0 11L1 11L1 14L0 14L0 21L1 21L1 17L2 17L2 16L3 16L3 20L2 20L2 21L3 21L3 20L5 20L5 21L7 21L7 20L5 20L5 19L9 19L9 20L11 20L11 21L8 21L8 23L11 23L11 21L12 21L12 22L13 22L13 23L12 23L12 25L13 25L13 24L14 24L14 25L15 25L15 24L14 24L14 23L16 23L16 24L17 24L17 25L18 25L18 26L19 26L19 25L18 25L18 24L17 24L17 22L19 22L19 23L20 23L20 27L19 27L19 28L21 28L21 29L22 29L22 28L21 28L21 25L25 25L25 26L22 26L22 27L23 27L23 29L24 29L24 27L25 27L25 28L26 28L26 29L27 29L27 28L28 28L28 26L29 26L29 25L27 25L27 24L26 24L26 23L27 23L27 22L29 22L29 20L28 20L28 19L27 19L27 16L28 16L28 15L27 15L27 12L28 12L28 11L27 11L27 12L25 12L25 13L21 13L21 12L22 12L22 11L23 11L23 12L24 12L24 11L25 11L25 9L26 9L26 8L25 8L25 9L24 9L24 8L23 8L23 9L22 9L22 8L20 8L20 9L19 9L19 10L17 10L17 11L16 11L16 10L15 10L15 8L13 8L13 6L14 6L14 7L15 7L15 6L16 6L16 8L17 8L17 9L18 9L18 8L17 8L17 4L18 4L18 3L17 3L17 2L19 2L19 5L20 5L20 3L21 3L21 0L18 0L18 1L17 1L17 0L16 0L16 1L14 1L14 3L13 3L13 4L12 4L12 2L13 2L13 1L11 1L11 2L10 2L10 0ZM19 1L19 2L20 2L20 1ZM10 3L10 4L11 4L11 3ZM15 3L15 4L14 4L14 5L16 5L16 4L17 4L17 3ZM8 5L8 7L9 7L9 5ZM18 6L18 7L19 7L19 6ZM20 6L20 7L21 7L21 6ZM27 8L27 9L28 9L28 10L29 10L29 9L28 9L28 8ZM8 9L8 10L9 10L9 9ZM4 10L4 11L3 11L3 12L2 12L2 13L4 13L4 11L5 11L5 12L7 12L7 13L5 13L5 14L3 14L3 15L4 15L4 16L5 16L5 17L6 17L6 18L7 18L7 17L8 17L8 16L9 16L9 15L10 15L10 13L11 13L11 17L9 17L9 19L11 19L11 18L13 18L13 19L12 19L12 21L15 21L15 22L17 22L17 21L15 21L15 20L14 20L14 19L15 19L15 18L17 18L17 16L16 16L16 15L14 15L14 16L13 16L13 17L12 17L12 15L13 15L13 14L12 14L12 13L11 13L11 12L10 12L10 13L9 13L9 12L7 12L7 11L5 11L5 10ZM23 10L23 11L24 11L24 10ZM15 11L15 12L16 12L16 11ZM28 13L28 14L29 14L29 13ZM1 14L1 15L2 15L2 14ZM6 14L6 15L7 15L7 16L6 16L6 17L7 17L7 16L8 16L8 15L9 15L9 14ZM14 16L14 17L15 17L15 16ZM28 17L28 18L29 18L29 17ZM4 18L4 19L5 19L5 18ZM22 18L22 19L23 19L23 20L24 20L24 19L25 19L25 21L26 21L26 20L27 20L27 19L25 19L25 18L24 18L24 19L23 19L23 18ZM21 21L21 24L24 24L24 21ZM22 22L22 23L23 23L23 22ZM28 23L28 24L29 24L29 23ZM8 24L8 29L9 29L9 28L10 28L10 29L12 29L12 27L13 27L13 26L9 26L9 24ZM10 24L10 25L11 25L11 24ZM25 24L25 25L26 25L26 24ZM15 26L15 27L14 27L14 28L15 28L15 29L18 29L18 28L15 28L15 27L16 27L16 26ZM25 26L25 27L26 27L26 28L27 28L27 26ZM0 0L0 7L7 7L7 0ZM1 1L1 6L6 6L6 1ZM2 2L2 5L5 5L5 2ZM22 0L22 7L29 7L29 0ZM23 1L23 6L28 6L28 1ZM24 2L24 5L27 5L27 2ZM0 22L0 29L7 29L7 22ZM1 23L1 28L6 28L6 23ZM2 24L2 27L5 27L5 24Z" fill="#000000"/></g></g></svg>
