<?xml version="1.0" encoding="UTF-8"?>
<svg xmlns="http://www.w3.org/2000/svg" version="1.1" width="100" height="100" viewBox="0 0 100 100"><rect x="0" y="0" width="100" height="100" fill="#ffffff"/><g transform="scale(3.448)"><g transform="translate(0,0)"><path fill-rule="evenodd" d="M8 0L8 1L10 1L10 0ZM13 0L13 2L11 2L11 4L10 4L10 3L9 3L9 2L8 2L8 5L9 5L9 6L8 6L8 7L9 7L9 8L8 8L8 11L7 11L7 10L5 10L5 9L4 9L4 8L0 8L0 10L1 10L1 11L3 11L3 10L5 10L5 11L4 11L4 12L2 12L2 13L0 13L0 17L1 17L1 18L0 18L0 19L1 19L1 18L2 18L2 17L3 17L3 18L4 18L4 17L3 17L3 16L2 16L2 15L5 15L5 16L6 16L6 17L5 17L5 19L4 19L4 20L3 20L3 19L2 19L2 20L1 20L1 21L2 21L2 20L3 20L3 21L8 21L8 22L10 22L10 21L12 21L12 22L11 22L11 23L14 23L14 20L13 20L13 18L14 18L14 19L17 19L17 22L16 22L16 23L15 23L15 24L14 24L14 26L13 26L13 24L12 24L12 25L11 25L11 24L10 24L10 23L9 23L9 24L10 24L10 25L8 25L8 29L9 29L9 26L11 26L11 27L10 27L10 29L11 29L11 28L12 28L12 29L13 29L13 28L12 28L12 26L13 26L13 27L14 27L14 29L15 29L15 27L14 27L14 26L16 26L16 27L17 27L17 26L18 26L18 27L19 27L19 28L18 28L18 29L19 29L19 28L20 28L20 29L21 29L21 27L22 27L22 25L23 25L23 28L24 28L24 29L25 29L25 28L26 28L26 25L28 25L28 27L27 27L27 29L28 29L28 27L29 27L29 23L28 23L28 22L29 22L29 21L27 21L27 18L28 18L28 15L29 15L29 13L27 13L27 12L26 12L26 11L28 11L28 12L29 12L29 11L28 11L28 10L29 10L29 8L28 8L28 10L26 10L26 11L24 11L24 10L25 10L25 9L27 9L27 8L24 8L24 9L22 9L22 8L21 8L21 6L20 6L20 5L21 5L21 4L20 4L20 3L21 3L21 2L20 2L20 3L19 3L19 2L18 2L18 3L17 3L17 2L16 2L16 3L15 3L15 2L14 2L14 0ZM18 0L18 1L21 1L21 0ZM12 3L12 5L10 5L10 6L9 6L9 7L10 7L10 8L9 8L9 9L10 9L10 10L9 10L9 11L8 11L8 12L10 12L10 13L11 13L11 11L15 11L15 12L16 12L16 10L17 10L17 12L18 12L18 13L20 13L20 12L21 12L21 14L20 14L20 15L19 15L19 17L18 17L18 14L17 14L17 13L16 13L16 14L15 14L15 15L14 15L14 14L13 14L13 12L12 12L12 14L11 14L11 15L10 15L10 14L9 14L9 13L5 13L5 12L4 12L4 14L5 14L5 15L6 15L6 16L7 16L7 17L6 17L6 18L7 18L7 19L6 19L6 20L8 20L8 17L10 17L10 19L9 19L9 20L10 20L10 19L11 19L11 20L12 20L12 19L11 19L11 18L12 18L12 17L13 17L13 16L14 16L14 17L15 17L15 16L16 16L16 17L18 17L18 19L19 19L19 21L20 21L20 19L21 19L21 16L22 16L22 19L23 19L23 16L24 16L24 15L25 15L25 17L24 17L24 20L26 20L26 19L25 19L25 18L26 18L26 17L27 17L27 15L25 15L25 14L27 14L27 13L25 13L25 12L22 12L22 10L21 10L21 9L20 9L20 10L19 10L19 9L17 9L17 7L18 7L18 5L17 5L17 4L16 4L16 5L15 5L15 7L14 7L14 6L13 6L13 7L12 7L12 5L13 5L13 3ZM18 3L18 4L19 4L19 3ZM16 5L16 7L17 7L17 5ZM10 6L10 7L11 7L11 8L12 8L12 7L11 7L11 6ZM19 6L19 8L20 8L20 6ZM6 8L6 9L7 9L7 8ZM14 8L14 9L15 9L15 8ZM2 9L2 10L3 10L3 9ZM20 10L20 11L18 11L18 12L20 12L20 11L21 11L21 10ZM6 11L6 12L7 12L7 11ZM2 13L2 14L1 14L1 15L2 15L2 14L3 14L3 13ZM22 13L22 14L21 14L21 15L22 15L22 16L23 16L23 15L24 15L24 14L23 14L23 13ZM6 14L6 15L9 15L9 16L10 16L10 15L9 15L9 14ZM12 14L12 16L11 16L11 17L12 17L12 16L13 16L13 14ZM22 14L22 15L23 15L23 14ZM16 15L16 16L17 16L17 15ZM21 21L21 24L24 24L24 21ZM22 22L22 23L23 23L23 22ZM26 22L26 23L25 23L25 25L26 25L26 24L27 24L27 22ZM16 23L16 24L15 24L15 25L16 25L16 26L17 26L17 24L18 24L18 26L21 26L21 25L20 25L20 24L18 24L18 23ZM24 26L24 28L25 28L25 26ZM16 28L16 29L17 29L17 28ZM0 0L0 7L7 7L7 0ZM1 1L1 6L6 6L6 1ZM2 2L2 5L5 5L5 2ZM22 0L22 7L29 7L29 0ZM23 1L23 6L28 6L28 1ZM24 2L24 5L27 5L27 2ZM0 22L0 29L7 29L7 22ZM1 23L1 28L6 28L6 23ZM2 24L2 27L5 27L5 24Z" fill="#000000"/></g></g></svg>
