<?xml version="1.0" encoding="UTF-8"?>
<svg xmlns="http://www.w3.org/2000/svg" version="1.1" width="100" height="100" viewBox="0 0 100 100"><rect x="0" y="0" width="100" height="100" fill="#ffffff"/><g transform="scale(3.448)"><g transform="translate(0,0)"><path fill-rule="evenodd" d="M8 0L8 2L10 2L10 4L8 4L8 9L7 9L7 8L5 8L5 9L4 9L4 10L3 10L3 11L2 11L2 10L1 10L1 9L3 9L3 8L0 8L0 10L1 10L1 11L0 11L0 13L1 13L1 14L0 14L0 15L1 15L1 14L2 14L2 16L3 16L3 18L4 18L4 17L7 17L7 18L6 18L6 19L2 19L2 17L1 17L1 16L0 16L0 17L1 17L1 18L0 18L0 19L2 19L2 20L0 20L0 21L3 21L3 20L4 20L4 21L5 21L5 20L6 20L6 21L8 21L8 22L9 22L9 23L8 23L8 24L9 24L9 25L10 25L10 29L14 29L14 27L13 27L13 28L11 28L11 27L12 27L12 26L11 26L11 24L13 24L13 26L15 26L15 29L16 29L16 27L18 27L18 28L19 28L19 29L21 29L21 27L20 27L20 26L21 26L21 25L23 25L23 27L24 27L24 28L22 28L22 29L25 29L25 22L27 22L27 21L28 21L28 23L29 23L29 21L28 21L28 20L27 20L27 21L26 21L26 20L24 20L24 19L22 19L22 20L20 20L20 21L19 21L19 22L20 22L20 24L19 24L19 23L18 23L18 21L17 21L17 23L16 23L16 20L15 20L15 22L13 22L13 21L14 21L14 19L13 19L13 20L11 20L11 19L12 19L12 18L11 18L11 16L13 16L13 18L14 18L14 17L15 17L15 19L16 19L16 17L17 17L17 18L18 18L18 17L17 17L17 15L18 15L18 14L19 14L19 15L23 15L23 16L21 16L21 17L22 17L22 18L23 18L23 17L24 17L24 16L25 16L25 18L28 18L28 19L29 19L29 16L28 16L28 17L26 17L26 16L25 16L25 15L26 15L26 14L28 14L28 15L29 15L29 12L28 12L28 13L26 13L26 14L25 14L25 15L24 15L24 14L23 14L23 11L27 11L27 10L28 10L28 11L29 11L29 8L27 8L27 10L23 10L23 9L25 9L25 8L21 8L21 9L22 9L22 10L23 10L23 11L22 11L22 12L21 12L21 14L20 14L20 12L19 12L19 11L21 11L21 10L20 10L20 8L19 8L19 5L18 5L18 4L20 4L20 5L21 5L21 4L20 4L20 3L18 3L18 1L19 1L19 0L17 0L17 1L16 1L16 2L17 2L17 4L16 4L16 3L14 3L14 2L15 2L15 0L14 0L14 2L13 2L13 0L11 0L11 1L9 1L9 0ZM11 1L11 2L12 2L12 1ZM20 1L20 2L21 2L21 1ZM11 3L11 4L12 4L12 6L11 6L11 5L9 5L9 8L10 8L10 6L11 6L11 7L12 7L12 6L13 6L13 8L11 8L11 10L9 10L9 9L8 9L8 12L7 12L7 11L6 11L6 12L7 12L7 13L5 13L5 11L4 11L4 13L3 13L3 12L2 12L2 11L1 11L1 12L2 12L2 13L3 13L3 15L4 15L4 16L5 16L5 15L6 15L6 16L8 16L8 17L9 17L9 19L8 19L8 18L7 18L7 19L6 19L6 20L8 20L8 21L9 21L9 22L10 22L10 23L9 23L9 24L11 24L11 23L12 23L12 21L11 21L11 22L10 22L10 21L9 21L9 19L10 19L10 16L9 16L9 15L6 15L6 14L7 14L7 13L9 13L9 14L11 14L11 15L12 15L12 13L11 13L11 12L13 12L13 14L14 14L14 15L13 15L13 16L14 16L14 15L15 15L15 14L14 14L14 13L15 13L15 8L16 8L16 10L17 10L17 12L16 12L16 15L17 15L17 14L18 14L18 13L19 13L19 12L18 12L18 9L19 9L19 8L18 8L18 5L16 5L16 4L15 4L15 8L14 8L14 5L13 5L13 3ZM16 6L16 8L17 8L17 6ZM20 6L20 7L21 7L21 6ZM5 9L5 10L7 10L7 9ZM13 9L13 10L14 10L14 9ZM11 10L11 11L12 11L12 10ZM9 11L9 13L10 13L10 11ZM4 14L4 15L5 15L5 14ZM15 16L15 17L16 17L16 16ZM19 16L19 19L18 19L18 20L19 20L19 19L21 19L21 18L20 18L20 16ZM21 21L21 24L24 24L24 21ZM22 22L22 23L23 23L23 22ZM13 23L13 24L14 24L14 23ZM17 23L17 25L16 25L16 24L15 24L15 25L16 25L16 26L18 26L18 27L19 27L19 26L20 26L20 25L19 25L19 24L18 24L18 23ZM27 24L27 25L28 25L28 26L26 26L26 27L29 27L29 25L28 25L28 24ZM8 26L8 29L9 29L9 26ZM28 28L28 29L29 29L29 28ZM0 0L0 7L7 7L7 0ZM1 1L1 6L6 6L6 1ZM2 2L2 5L5 5L5 2ZM22 0L22 7L29 7L29 0ZM23 1L23 6L28 6L28 1ZM24 2L24 5L27 5L27 2ZM0 22L0 29L7 29L7 22ZM1 23L1 28L6 28L6 23ZM2 24L2 27L5 27L5 24Z" fill="#000000"/></g></g></svg>
