<?xml version="1.0" encoding="UTF-8"?>
<svg xmlns="http://www.w3.org/2000/svg" version="1.1" width="100" height="100" viewBox="0 0 100 100"><rect x="0" y="0" width="100" height="100" fill="#ffffff"/><g transform="scale(3.448)"><g transform="translate(0,0)"><path fill-rule="evenodd" d="M8 0L8 4L10 4L10 3L11 3L11 4L12 4L12 2L11 2L11 0ZM12 0L12 1L13 1L13 0ZM14 0L14 1L16 1L16 2L14 2L14 3L13 3L13 4L14 4L14 3L15 3L15 5L11 5L11 6L10 6L10 7L9 7L9 5L8 5L8 7L9 7L9 8L10 8L10 7L11 7L11 6L12 6L12 8L11 8L11 9L8 9L8 11L9 11L9 10L11 10L11 11L10 11L10 13L9 13L9 12L8 12L8 13L7 13L7 12L4 12L4 10L3 10L3 11L2 11L2 12L4 12L4 13L5 13L5 14L6 14L6 15L7 15L7 14L9 14L9 15L8 15L8 17L7 17L7 16L5 16L5 15L4 15L4 14L1 14L1 13L0 13L0 18L2 18L2 20L0 20L0 21L2 21L2 20L3 20L3 21L5 21L5 20L6 20L6 21L8 21L8 22L9 22L9 23L8 23L8 25L9 25L9 27L8 27L8 29L9 29L9 28L13 28L13 27L15 27L15 28L16 28L16 29L18 29L18 28L19 28L19 27L17 27L17 25L18 25L18 24L19 24L19 25L20 25L20 26L22 26L22 25L23 25L23 26L24 26L24 25L25 25L25 26L27 26L27 29L28 29L28 28L29 28L29 17L28 17L28 16L29 16L29 13L28 13L28 12L29 12L29 8L25 8L25 9L24 9L24 8L23 8L23 9L22 9L22 10L21 10L21 5L16 5L16 3L18 3L18 4L19 4L19 2L20 2L20 4L21 4L21 1L19 1L19 0L18 0L18 1L19 1L19 2L17 2L17 1L16 1L16 0ZM9 2L9 3L10 3L10 2ZM15 5L15 8L16 8L16 10L19 10L19 11L18 11L18 12L19 12L19 16L18 16L18 17L17 17L17 15L18 15L18 14L16 14L16 16L14 16L14 15L13 15L13 14L14 14L14 11L15 11L15 13L16 13L16 11L15 11L15 9L14 9L14 6L13 6L13 8L12 8L12 9L11 9L11 10L12 10L12 9L14 9L14 10L13 10L13 11L12 11L12 12L11 12L11 13L10 13L10 14L11 14L11 15L10 15L10 16L9 16L9 17L8 17L8 19L6 19L6 18L7 18L7 17L5 17L5 18L4 18L4 17L3 17L3 16L4 16L4 15L1 15L1 17L2 17L2 18L3 18L3 20L5 20L5 19L6 19L6 20L8 20L8 21L9 21L9 22L10 22L10 25L11 25L11 26L12 26L12 25L11 25L11 24L12 24L12 23L13 23L13 26L14 26L14 25L15 25L15 24L16 24L16 25L17 25L17 22L19 22L19 21L20 21L20 19L21 19L21 20L22 20L22 19L24 19L24 20L26 20L26 21L25 21L25 22L27 22L27 23L26 23L26 24L25 24L25 25L27 25L27 26L28 26L28 25L27 25L27 23L28 23L28 20L27 20L27 19L28 19L28 18L27 18L27 15L28 15L28 14L27 14L27 11L28 11L28 10L24 10L24 11L23 11L23 10L22 10L22 11L21 11L21 10L20 10L20 8L18 8L18 9L17 9L17 7L18 7L18 6L17 6L17 7L16 7L16 5ZM19 6L19 7L20 7L20 6ZM0 8L0 10L2 10L2 8ZM4 8L4 9L7 9L7 8ZM6 10L6 11L7 11L7 10ZM19 11L19 12L20 12L20 11ZM22 11L22 12L21 12L21 13L22 13L22 15L23 15L23 14L26 14L26 15L27 15L27 14L26 14L26 13L22 13L22 12L23 12L23 11ZM12 12L12 13L13 13L13 12ZM6 13L6 14L7 14L7 13ZM20 14L20 15L21 15L21 14ZM12 15L12 16L11 16L11 17L12 17L12 18L10 18L10 17L9 17L9 18L10 18L10 20L12 20L12 21L13 21L13 22L14 22L14 24L15 24L15 23L16 23L16 22L17 22L17 21L18 21L18 20L19 20L19 19L17 19L17 21L16 21L16 18L17 18L17 17L14 17L14 20L15 20L15 21L13 21L13 20L12 20L12 19L13 19L13 17L12 17L12 16L13 16L13 15ZM24 15L24 16L25 16L25 17L24 17L24 19L27 19L27 18L25 18L25 17L26 17L26 16L25 16L25 15ZM20 16L20 17L22 17L22 18L21 18L21 19L22 19L22 18L23 18L23 17L22 17L22 16ZM18 17L18 18L19 18L19 17ZM10 21L10 22L11 22L11 21ZM21 21L21 24L24 24L24 21ZM22 22L22 23L23 23L23 22ZM16 27L16 28L17 28L17 27ZM20 27L20 29L21 29L21 27ZM22 27L22 28L23 28L23 29L24 29L24 28L25 28L25 29L26 29L26 27L24 27L24 28L23 28L23 27ZM0 0L0 7L7 7L7 0ZM1 1L1 6L6 6L6 1ZM2 2L2 5L5 5L5 2ZM22 0L22 7L29 7L29 0ZM23 1L23 6L28 6L28 1ZM24 2L24 5L27 5L27 2ZM0 22L0 29L7 29L7 22ZM1 23L1 28L6 28L6 23ZM2 24L2 27L5 27L5 24Z" fill="#000000"/></g></g></svg>
