<?xml version="1.0" encoding="UTF-8"?>
<svg xmlns="http://www.w3.org/2000/svg" version="1.1" width="100" height="100" viewBox="0 0 100 100"><rect x="0" y="0" width="100" height="100" fill="#ffffff"/><g transform="scale(3.448)"><g transform="translate(0,0)"><path fill-rule="evenodd" d="M8 0L8 1L9 1L9 2L10 2L10 3L11 3L11 1L13 1L13 2L12 2L12 4L11 4L11 5L10 5L10 4L9 4L9 5L10 5L10 8L9 8L9 6L8 6L8 8L9 8L9 9L7 9L7 8L6 8L6 9L7 9L7 10L6 10L6 11L7 11L7 12L6 12L6 13L7 13L7 14L6 14L6 15L5 15L5 8L3 8L3 10L2 10L2 8L0 8L0 10L1 10L1 13L0 13L0 15L1 15L1 16L0 16L0 21L2 21L2 19L5 19L5 18L3 18L3 17L5 17L5 16L6 16L6 17L8 17L8 18L6 18L6 19L7 19L7 20L5 20L5 21L8 21L8 22L10 22L10 24L8 24L8 26L9 26L9 25L10 25L10 27L11 27L11 22L10 22L10 21L11 21L11 20L10 20L10 21L9 21L9 20L8 20L8 18L9 18L9 19L10 19L10 18L11 18L11 19L12 19L12 21L14 21L14 24L13 24L13 25L12 25L12 26L13 26L13 25L15 25L15 26L14 26L14 27L12 27L12 28L11 28L11 29L13 29L13 28L15 28L15 29L17 29L17 26L16 26L16 25L17 25L17 24L18 24L18 22L19 22L19 23L20 23L20 24L19 24L19 25L18 25L18 26L19 26L19 28L20 28L20 29L21 29L21 28L20 28L20 27L21 27L21 26L20 26L20 25L23 25L23 26L24 26L24 27L25 27L25 26L27 26L27 27L26 27L26 28L23 28L23 27L22 27L22 28L23 28L23 29L26 29L26 28L27 28L27 27L28 27L28 28L29 28L29 25L28 25L28 24L29 24L29 23L28 23L28 24L27 24L27 25L25 25L25 23L26 23L26 21L28 21L28 20L27 20L27 19L22 19L22 20L21 20L21 18L20 18L20 17L18 17L18 18L19 18L19 20L20 20L20 21L18 21L18 20L17 20L17 21L16 21L16 20L15 20L15 19L16 19L16 18L17 18L17 17L15 17L15 16L16 16L16 13L15 13L15 14L14 14L14 13L13 13L13 11L14 11L14 10L15 10L15 11L16 11L16 12L18 12L18 11L19 11L19 10L20 10L20 11L21 11L21 6L20 6L20 7L19 7L19 6L18 6L18 3L15 3L15 2L14 2L14 1L15 1L15 0L14 0L14 1L13 1L13 0L11 0L11 1L9 1L9 0ZM17 0L17 1L16 1L16 2L20 2L20 3L19 3L19 5L21 5L21 2L20 2L20 1L19 1L19 0ZM14 3L14 4L12 4L12 5L11 5L11 7L12 7L12 9L10 9L10 10L8 10L8 11L10 11L10 10L12 10L12 11L13 11L13 10L12 10L12 9L14 9L14 8L16 8L16 9L17 9L17 10L16 10L16 11L18 11L18 10L19 10L19 7L18 7L18 6L17 6L17 8L16 8L16 5L17 5L17 4L15 4L15 3ZM14 4L14 7L13 7L13 5L12 5L12 7L13 7L13 8L14 8L14 7L15 7L15 4ZM17 8L17 9L18 9L18 8ZM22 8L22 9L23 9L23 8ZM28 8L28 9L26 9L26 11L27 11L27 10L28 10L28 9L29 9L29 8ZM24 9L24 10L22 10L22 11L23 11L23 12L21 12L21 13L20 13L20 12L19 12L19 13L20 13L20 14L19 14L19 15L18 15L18 16L19 16L19 15L20 15L20 16L21 16L21 17L22 17L22 16L23 16L23 18L28 18L28 19L29 19L29 18L28 18L28 17L24 17L24 15L23 15L23 12L25 12L25 9ZM28 11L28 13L27 13L27 14L26 14L26 13L24 13L24 14L25 14L25 15L26 15L26 16L27 16L27 14L28 14L28 16L29 16L29 11ZM2 12L2 13L1 13L1 15L2 15L2 14L4 14L4 12ZM7 12L7 13L8 13L8 14L9 14L9 15L8 15L8 16L9 16L9 18L10 18L10 16L11 16L11 17L14 17L14 18L12 18L12 19L13 19L13 20L14 20L14 19L15 19L15 17L14 17L14 16L15 16L15 15L12 15L12 16L11 16L11 15L10 15L10 14L13 14L13 13L11 13L11 12L10 12L10 14L9 14L9 13L8 13L8 12ZM20 14L20 15L21 15L21 16L22 16L22 15L21 15L21 14ZM3 15L3 16L1 16L1 18L2 18L2 17L3 17L3 16L5 16L5 15ZM6 15L6 16L7 16L7 15ZM3 20L3 21L4 21L4 20ZM21 21L21 24L24 24L24 21ZM12 22L12 23L13 23L13 22ZM22 22L22 23L23 23L23 22ZM16 23L16 24L15 24L15 25L16 25L16 24L17 24L17 23ZM24 25L24 26L25 26L25 25ZM27 25L27 26L28 26L28 25ZM8 27L8 29L10 29L10 28L9 28L9 27ZM0 0L0 7L7 7L7 0ZM1 1L1 6L6 6L6 1ZM2 2L2 5L5 5L5 2ZM22 0L22 7L29 7L29 0ZM23 1L23 6L28 6L28 1ZM24 2L24 5L27 5L27 2ZM0 22L0 29L7 29L7 22ZM1 23L1 28L6 28L6 23ZM2 24L2 27L5 27L5 24Z" fill="#000000"/></g></g></svg>
