<?xml version="1.0" encoding="UTF-8"?>
<svg xmlns="http://www.w3.org/2000/svg" version="1.1" width="100" height="100" viewBox="0 0 100 100"><rect x="0" y="0" width="100" height="100" fill="#ffffff"/><g transform="scale(3.448)"><g transform="translate(0,0)"><path fill-rule="evenodd" d="M8 0L8 1L9 1L9 2L8 2L8 5L9 5L9 4L11 4L11 5L10 5L10 10L9 10L9 8L8 8L8 9L7 9L7 8L6 8L6 9L4 9L4 8L0 8L0 9L1 9L1 10L2 10L2 11L1 11L1 12L0 12L0 14L1 14L1 15L3 15L3 16L5 16L5 15L7 15L7 16L6 16L6 17L5 17L5 20L3 20L3 21L5 21L5 20L6 20L6 21L8 21L8 22L9 22L9 21L8 21L8 20L6 20L6 19L7 19L7 18L8 18L8 19L9 19L9 18L10 18L10 19L11 19L11 20L10 20L10 23L11 23L11 24L9 24L9 25L8 25L8 29L9 29L9 28L10 28L10 26L12 26L12 27L13 27L13 26L14 26L14 27L15 27L15 28L16 28L16 29L17 29L17 27L18 27L18 26L19 26L19 27L20 27L20 28L18 28L18 29L21 29L21 27L22 27L22 25L24 25L24 26L23 26L23 28L24 28L24 29L25 29L25 28L26 28L26 26L27 26L27 24L25 24L25 23L26 23L26 22L27 22L27 23L28 23L28 27L27 27L27 29L28 29L28 27L29 27L29 23L28 23L28 22L29 22L29 21L27 21L27 18L28 18L28 15L29 15L29 13L27 13L27 12L26 12L26 11L28 11L28 12L29 12L29 11L28 11L28 10L29 10L29 8L28 8L28 10L26 10L26 11L25 11L25 13L27 13L27 14L25 14L25 15L27 15L27 17L26 17L26 18L25 18L25 19L26 19L26 20L24 20L24 18L21 18L21 17L22 17L22 16L23 16L23 17L25 17L25 16L24 16L24 14L23 14L23 13L22 13L22 14L20 14L20 13L21 13L21 12L24 12L24 10L25 10L25 9L27 9L27 8L24 8L24 9L22 9L22 8L21 8L21 10L20 10L20 9L19 9L19 8L20 8L20 7L21 7L21 6L20 6L20 4L21 4L21 0L18 0L18 1L16 1L16 3L15 3L15 2L14 2L14 0L12 0L12 1L11 1L11 0L10 0L10 1L9 1L9 0ZM19 1L19 2L20 2L20 1ZM11 2L11 4L12 4L12 3L13 3L13 2ZM17 2L17 3L18 3L18 4L20 4L20 3L18 3L18 2ZM14 3L14 6L13 6L13 5L12 5L12 6L11 6L11 8L12 8L12 6L13 6L13 11L11 11L11 13L10 13L10 14L11 14L11 13L12 13L12 12L13 12L13 11L14 11L14 13L15 13L15 11L17 11L17 12L21 12L21 11L22 11L22 10L21 10L21 11L20 11L20 10L19 10L19 9L15 9L15 7L16 7L16 6L17 6L17 7L18 7L18 6L19 6L19 7L20 7L20 6L19 6L19 5L18 5L18 6L17 6L17 4L16 4L16 5L15 5L15 3ZM8 6L8 7L9 7L9 6ZM14 6L14 7L15 7L15 6ZM6 9L6 10L7 10L7 11L4 11L4 10L3 10L3 11L2 11L2 12L1 12L1 14L3 14L3 15L4 15L4 14L5 14L5 13L4 13L4 12L9 12L9 10L7 10L7 9ZM11 9L11 10L12 10L12 9ZM14 9L14 10L15 10L15 9ZM17 10L17 11L19 11L19 10ZM2 12L2 13L3 13L3 12ZM6 13L6 14L7 14L7 15L9 15L9 13L8 13L8 14L7 14L7 13ZM17 13L17 14L15 14L15 15L17 15L17 16L14 16L14 14L12 14L12 16L9 16L9 17L8 17L8 18L9 18L9 17L10 17L10 18L11 18L11 19L12 19L12 20L11 20L11 23L16 23L16 24L15 24L15 25L17 25L17 24L18 24L18 25L20 25L20 23L19 23L19 24L18 24L18 23L16 23L16 21L14 21L14 20L16 20L16 19L14 19L14 18L15 18L15 17L16 17L16 18L19 18L19 21L17 21L17 22L20 22L20 20L21 20L21 18L20 18L20 17L18 17L18 16L22 16L22 15L17 15L17 14L19 14L19 13ZM0 16L0 17L1 17L1 18L0 18L0 19L1 19L1 18L4 18L4 17L2 17L2 16ZM12 16L12 17L14 17L14 16ZM6 17L6 18L7 18L7 17ZM22 19L22 20L23 20L23 19ZM1 20L1 21L2 21L2 20ZM21 21L21 24L24 24L24 21ZM22 22L22 23L23 23L23 22ZM9 25L9 26L10 26L10 25ZM12 25L12 26L13 26L13 25ZM25 25L25 26L24 26L24 28L25 28L25 26L26 26L26 25ZM15 26L15 27L16 27L16 26ZM20 26L20 27L21 27L21 26ZM11 28L11 29L14 29L14 28ZM0 0L0 7L7 7L7 0ZM1 1L1 6L6 6L6 1ZM2 2L2 5L5 5L5 2ZM22 0L22 7L29 7L29 0ZM23 1L23 6L28 6L28 1ZM24 2L24 5L27 5L27 2ZM0 22L0 29L7 29L7 22ZM1 23L1 28L6 28L6 23ZM2 24L2 27L5 27L5 24Z" fill="#000000"/></g></g></svg>
