<?xml version="1.0" encoding="UTF-8"?>
<svg xmlns="http://www.w3.org/2000/svg" version="1.1" width="100" height="100" viewBox="0 0 100 100"><rect x="0" y="0" width="100" height="100" fill="#ffffff"/><g transform="scale(3.448)"><g transform="translate(0,0)"><path fill-rule="evenodd" d="M9 0L9 1L8 1L8 3L9 3L9 4L8 4L8 8L6 8L6 9L4 9L4 8L3 8L3 9L2 9L2 8L0 8L0 9L2 9L2 13L1 13L1 12L0 12L0 14L1 14L1 15L2 15L2 16L1 16L1 17L2 17L2 19L8 19L8 20L6 20L6 21L8 21L8 23L9 23L9 25L8 25L8 26L9 26L9 27L8 27L8 29L10 29L10 28L9 28L9 27L10 27L10 26L11 26L11 28L14 28L14 27L15 27L15 28L16 28L16 29L18 29L18 28L20 28L20 29L21 29L21 27L22 27L22 26L23 26L23 25L24 25L24 28L23 28L23 29L24 29L24 28L25 28L25 29L26 29L26 28L25 28L25 25L26 25L26 24L27 24L27 26L28 26L28 27L27 27L27 29L28 29L28 27L29 27L29 26L28 26L28 22L29 22L29 21L27 21L27 20L29 20L29 17L28 17L28 15L29 15L29 14L27 14L27 13L29 13L29 12L28 12L28 10L29 10L29 9L28 9L28 8L26 8L26 9L25 9L25 8L22 8L22 9L21 9L21 10L19 10L19 9L20 9L20 8L21 8L21 5L19 5L19 6L18 6L18 5L16 5L16 4L17 4L17 3L18 3L18 4L21 4L21 2L20 2L20 3L18 3L18 2L19 2L19 1L20 1L20 0L18 0L18 1L17 1L17 0L12 0L12 1L11 1L11 2L9 2L9 1L10 1L10 0ZM16 1L16 2L15 2L15 3L14 3L14 2L13 2L13 3L12 3L12 4L9 4L9 5L10 5L10 6L9 6L9 7L10 7L10 8L8 8L8 9L6 9L6 10L10 10L10 8L11 8L11 9L12 9L12 10L11 10L11 11L9 11L9 13L12 13L12 12L13 12L13 11L14 11L14 12L15 12L15 13L14 13L14 14L15 14L15 15L20 15L20 16L18 16L18 17L17 17L17 16L12 16L12 14L10 14L10 15L11 15L11 16L8 16L8 11L6 11L6 12L7 12L7 13L6 13L6 14L5 14L5 12L4 12L4 10L3 10L3 13L2 13L2 15L3 15L3 16L2 16L2 17L4 17L4 18L8 18L8 19L9 19L9 17L11 17L11 18L10 18L10 20L11 20L11 19L12 19L12 20L14 20L14 19L16 19L16 20L17 20L17 21L19 21L19 20L20 20L20 18L21 18L21 20L22 20L22 19L23 19L23 18L24 18L24 20L25 20L25 24L26 24L26 23L27 23L27 22L26 22L26 20L27 20L27 18L28 18L28 17L27 17L27 15L26 15L26 13L27 13L27 12L26 12L26 13L25 13L25 11L24 11L24 10L25 10L25 9L23 9L23 11L22 11L22 10L21 10L21 12L20 12L20 11L19 11L19 10L17 10L17 9L19 9L19 8L17 8L17 7L18 7L18 6L17 6L17 7L16 7L16 6L15 6L15 8L14 8L14 6L13 6L13 5L15 5L15 3L16 3L16 2L17 2L17 1ZM11 5L11 6L10 6L10 7L11 7L11 6L12 6L12 8L13 8L13 10L14 10L14 11L15 11L15 9L17 9L17 8L15 8L15 9L14 9L14 8L13 8L13 6L12 6L12 5ZM19 6L19 7L20 7L20 6ZM26 9L26 10L28 10L28 9ZM0 10L0 11L1 11L1 10ZM23 11L23 12L21 12L21 13L20 13L20 12L17 12L17 13L19 13L19 14L20 14L20 15L22 15L22 16L20 16L20 17L21 17L21 18L23 18L23 17L22 17L22 16L23 16L23 14L22 14L22 13L23 13L23 12L24 12L24 11ZM3 13L3 14L4 14L4 17L5 17L5 16L6 16L6 17L8 17L8 16L6 16L6 15L7 15L7 14L6 14L6 15L5 15L5 14L4 14L4 13ZM24 14L24 16L25 16L25 17L26 17L26 15L25 15L25 14ZM11 16L11 17L12 17L12 16ZM14 17L14 18L15 18L15 17ZM16 17L16 18L17 18L17 20L19 20L19 18L17 18L17 17ZM0 18L0 19L1 19L1 18ZM25 18L25 19L26 19L26 18ZM0 20L0 21L1 21L1 20ZM2 20L2 21L5 21L5 20ZM10 21L10 22L9 22L9 23L10 23L10 22L11 22L11 21ZM14 21L14 26L15 26L15 27L16 27L16 26L17 26L17 27L18 27L18 26L17 26L17 25L15 25L15 24L16 24L16 21ZM21 21L21 24L24 24L24 21ZM17 22L17 24L18 24L18 25L20 25L20 26L19 26L19 27L21 27L21 26L22 26L22 25L20 25L20 22ZM22 22L22 23L23 23L23 22ZM18 23L18 24L19 24L19 23ZM10 24L10 25L9 25L9 26L10 26L10 25L11 25L11 24ZM12 25L12 27L13 27L13 25ZM0 0L0 7L7 7L7 0ZM1 1L1 6L6 6L6 1ZM2 2L2 5L5 5L5 2ZM22 0L22 7L29 7L29 0ZM23 1L23 6L28 6L28 1ZM24 2L24 5L27 5L27 2ZM0 22L0 29L7 29L7 22ZM1 23L1 28L6 28L6 23ZM2 24L2 27L5 27L5 24Z" fill="#000000"/></g></g></svg>
