<svg width="36" height="36" viewBox="0 0 36 36" fill="none" xmlns="http://www.w3.org/2000/svg">
<path d="M0.5 3.78125C0.5 1.96907 1.96907 0.5 3.78125 0.5H32.2188C34.0309 0.5 35.5 1.96907 35.5 3.78125V8.15625C35.5 9.96843 34.0309 11.4375 32.2188 11.4375H3.78125C1.96907 11.4375 0.5 9.96843 0.5 8.15625V3.78125ZM3.78125 2.6875C3.17719 2.6875 2.6875 3.17719 2.6875 3.78125V8.15625C2.6875 8.76031 3.17719 9.25 3.78125 9.25H32.2188C32.8228 9.25 33.3125 8.76031 33.3125 8.15625V3.78125C33.3125 3.17719 32.8228 2.6875 32.2188 2.6875H3.78125Z" fill="#F54748"/>
<path d="M4.875 5.96875C4.875 5.36469 5.36469 4.875 5.96875 4.875H12.5312C13.1353 4.875 13.625 5.36469 13.625 5.96875C13.625 6.57281 13.1353 7.0625 12.5312 7.0625H5.96875C5.36469 7.0625 4.875 6.57281 4.875 5.96875Z" fill="#F54748"/>
<path d="M28.5508 6.6758L27.6836 5.80857C27.3391 5.46406 27.5831 4.875 28.0703 4.875H29.8047C30.2919 4.875 30.5359 5.46406 30.1914 5.80857L29.3242 6.6758C29.1106 6.88937 28.7644 6.88937 28.5508 6.6758Z" fill="#F54748"/>
<path d="M0.5 18C0.5 15.5838 2.45875 13.625 4.875 13.625H31.125C33.5412 13.625 35.5 15.5838 35.5 18V28.9375C35.5 31.3537 33.5412 33.3125 31.125 33.3125H4.875C2.45876 33.3125 0.5 31.3537 0.5 28.9375V18ZM2.6875 24.5625V28.9375C2.6875 30.1456 3.66688 31.125 4.875 31.125H31.125C32.3331 31.125 33.3125 30.1456 33.3125 28.9375V24.5625H2.6875ZM33.3125 22.375V18C33.3125 16.7919 32.3331 15.8125 31.125 15.8125H4.875C3.66688 15.8125 2.6875 16.7919 2.6875 18V22.375H33.3125ZM4.875 19.0938C4.875 18.4897 5.36469 18 5.96875 18H25.6562C26.2603 18 26.75 18.4897 26.75 19.0938C26.75 19.6978 26.2603 20.1875 25.6562 20.1875H5.96875C5.36469 20.1875 4.875 19.6978 4.875 19.0938ZM4.875 27.8438C4.875 27.2397 5.36469 26.75 5.96875 26.75H19.0938C19.6978 26.75 20.1875 27.2397 20.1875 27.8438C20.1875 28.4478 19.6978 28.9375 19.0938 28.9375H5.96875C5.36469 28.9375 4.875 28.4478 4.875 27.8438Z" fill="#F54748"/>
</svg>
