<svg width="54" height="48" viewBox="0 0 54 48" fill="none" xmlns="http://www.w3.org/2000/svg">
<path fill-rule="evenodd" clip-rule="evenodd" d="M15.1988 11.799C15.2381 11.7862 19.4219 10.353 19.4219 10.353L18.9683 14.6997C18.9633 14.7818 18.9176 15.0875 18.9176 15.0875C18.7207 16.0649 18.0149 16.911 16.9953 17.2413C15.4875 17.7298 13.8609 16.9073 13.3651 15.4053C12.8984 13.9913 13.5994 12.4763 14.9413 11.8959C14.9413 11.8959 15.1265 11.8224 15.1988 11.799Z" fill="#302E2D"/>
<path fill-rule="evenodd" clip-rule="evenodd" d="M8.81107 30.9988C13.3489 31.1664 16.981 34.8788 16.981 39.4273C16.981 44.0823 13.1761 47.8617 8.49052 47.8617C3.80491 47.8617 0 44.0823 0 39.4273C0 36.0784 1.96924 33.1827 4.81917 31.8214L6.60726 35.8307C5.30166 36.5072 4.41013 37.8646 4.41013 39.4273C4.41013 41.6647 6.23829 43.4812 8.49052 43.4812C10.7427 43.4812 12.5709 41.6647 12.5709 39.4273C12.5709 38.7333 12.3956 38.0798 12.0859 37.5085L8.81107 30.9988Z" fill="#302E2D"/>
<path fill-rule="evenodd" clip-rule="evenodd" d="M7.49842 28.3883C6.03005 25.3939 4.43228 22.0577 3.6167 20.0469C3.40634 19.5943 3.21935 19.1289 3.05741 18.6521C2.97309 18.4393 2.92801 18.3231 2.92801 18.3231C2.92801 18.3231 2.93886 18.3322 2.9589 18.3499C2.53984 17.0184 2.31445 15.6025 2.31445 14.1346C2.31445 6.33349 8.68964 0 16.5424 0C24.396 0 30.7712 6.33349 30.7712 14.1346C30.7712 21.8661 25.159 27.3177 18.4766 28.08L16.115 22.7585C16.1233 22.7836 15.5665 22.7347 16.5424 22.7347C21.3207 22.7347 25.1999 18.8812 25.1999 14.1346C25.1999 9.38817 21.3207 5.53467 16.5424 5.53467C11.765 5.53467 7.88576 9.38817 7.88576 14.1346C7.88576 15.5716 8.55442 17.2186 8.86913 18.1177C8.90335 18.076 13.0455 27.3231 15.1366 32.4547C13.4036 30.824 11.0638 29.8232 8.49097 29.8232C8.41083 29.8232 8.33069 29.8242 8.25139 29.8261C8.05689 29.464 7.90495 29.1851 7.81981 29.0271L7.49842 28.3883Z" fill="#EF4748"/>
<path d="M22.5309 30.9539H22.3362V32.5002H22.5975C22.9627 32.5002 23.2393 32.4329 23.4322 32.2984C23.6233 32.1639 23.7189 31.9702 23.7189 31.7172C23.7189 31.4534 23.625 31.2603 23.4356 31.1379C23.2461 31.0153 22.9456 30.9539 22.5309 30.9539ZM22.3056 36.9194L19.1904 29.8428L22.4473 29.8912C22.9252 29.8912 23.3058 29.9246 23.5858 29.9912C23.8657 30.0578 24.1149 30.1696 24.3317 30.3267C24.557 30.484 24.7311 30.6803 24.854 30.9161C24.9786 31.1518 25.0401 31.4015 25.0401 31.6651C25.0401 32.2511 24.8232 32.7159 24.388 33.0595C23.9527 33.403 23.3639 33.5748 22.618 33.5748C22.5411 33.5748 22.4831 33.5742 22.4438 33.5729C22.4046 33.5716 22.3687 33.5696 22.3362 33.5668V35.6844L22.3056 36.9194Z" fill="#EF4748"/>
<path d="M27.0439 32.7879C27.0439 33.2913 27.1975 33.7126 27.5048 34.0524C27.812 34.3919 28.1909 34.5616 28.6399 34.5616C29.0939 34.5616 29.4728 34.3926 29.7784 34.0543C30.0839 33.7161 30.2358 33.2939 30.2358 32.7879C30.2358 32.2791 30.0839 31.855 29.7784 31.5154C29.5565 31.2683 29.2953 31.111 28.9949 31.0438C28.8822 31.0186 28.7645 31.006 28.6399 31.006C28.1909 31.006 27.812 31.1757 27.5048 31.5154C27.1975 31.855 27.0439 32.2791 27.0439 32.7879ZM25.5605 32.7879C25.5605 32.359 25.6373 31.9574 25.7927 31.5833C25.9463 31.2091 26.1734 30.8741 26.4738 30.5785C26.7571 30.2961 27.0865 30.0798 27.4603 29.9292C27.8359 29.7788 28.2285 29.7036 28.6399 29.7036C29.0512 29.7036 29.4455 29.7795 29.821 29.9312C30.1983 30.083 30.5328 30.3015 30.8247 30.5864C31.1183 30.8715 31.3419 31.201 31.4921 31.5753C31.644 31.9495 31.7208 32.3538 31.7208 32.7879C31.7208 33.15 31.668 33.4909 31.5621 33.8107C31.4563 34.1303 31.2992 34.4219 31.091 34.6855C30.7957 35.0611 30.4338 35.3527 30.0054 35.5605C29.577 35.7682 29.1212 35.8721 28.6399 35.8721C28.2319 35.8721 27.841 35.7961 27.4672 35.6444C27.0934 35.4926 26.7622 35.2741 26.4738 34.9892C26.1734 34.6935 25.9463 34.3598 25.7927 33.9884C25.6373 33.6167 25.5605 33.2166 25.5605 32.7879Z" fill="#EF4748"/>
<path d="M34.187 29.8913H32.7451V35.6842H34.187V29.8913Z" fill="#EF4748"/>
<path d="M35.5957 35.6844V29.7036H35.734L39.5456 33.2502L39.496 29.8912H40.8258V35.9041H40.7011L36.8759 32.4359L36.9254 35.6844H35.5957Z" fill="#EF4748"/>
<path d="M43.4386 35.6844L43.4676 31.0234L41.5166 31.1019V29.8913H46.7927V31.1019H46.4445L44.84 30.9939L44.8809 35.6844H43.4386Z" fill="#EF4748"/>
<path fill-rule="evenodd" clip-rule="evenodd" d="M20.5176 40.9694C20.5176 40.5412 20.5948 40.14 20.7492 39.7649C20.9026 39.3907 21.1301 39.0566 21.4296 38.7604C21.7134 38.4783 22.0422 38.2622 22.4179 38.1111C22.7925 37.9611 23.1859 37.886 23.597 37.886C24.0082 37.886 24.4027 37.9611 24.7783 38.1131C25.1551 38.2652 25.489 38.4833 25.7812 38.7684C26.0754 39.0536 26.2988 39.3837 26.4501 39.7579C26.6014 40.132 26.6765 40.5362 26.6765 40.9694C26.6765 41.3325 26.6243 41.6727 26.5189 41.9928C26.4125 42.312 26.256 42.6041 26.0473 42.8672C25.753 43.2434 25.3909 43.5345 24.962 43.7426C24.5331 43.9507 24.0781 44.0547 23.597 44.0547C23.189 44.0547 22.7977 43.9787 22.4241 43.8266C22.0505 43.6746 21.7187 43.4565 21.4296 43.1714C21.1301 42.8752 20.9026 42.5421 20.7492 42.1709C20.5948 41.7988 20.5176 41.3986 20.5176 40.9694ZM24.7293 42.242C24.7314 42.24 24.7335 42.2379 24.7345 42.2369C25.0403 41.8978 25.1937 41.4756 25.1937 40.9694C25.1937 40.4612 25.0403 40.037 24.7345 39.6978C24.4288 39.3577 24.0499 39.1746 23.597 39.1876C23.4478 39.1926 23.3247 39.2326 23.2631 39.2657L24.7293 42.242Z" fill="#302E2D"/>
<path d="M27.6855 43.8665V38.0734H31.4408V39.252L29.0903 39.203L29.0596 40.4754L31.195 40.4066V41.5772L29.0698 41.5282L29.1193 43.8665H27.6855Z" fill="#302E2D"/>
<path d="M34.9858 42.535C35.3579 42.7534 35.2674 42.5999 35.5269 42.688C35.7863 42.7758 36.0406 42.8197 36.2864 42.8197C36.5373 42.8197 36.7371 42.7672 36.889 42.662C37.0409 42.5567 37.116 42.4216 37.116 42.2564C37.116 42.0193 36.8463 41.7531 36.3069 41.4574C36.2216 41.4094 36.155 41.3721 36.1072 41.3454L35.6992 41.1258C35.3015 40.91 35.008 40.6663 34.8151 40.3947C34.6239 40.123 34.5283 39.8154 34.5283 39.4717C34.5283 39.0057 34.7127 38.6234 35.078 38.3251C35.445 38.0269 35.9194 37.8777 36.4998 37.8777C36.7132 37.8777 36.9453 37.9017 37.1962 37.9497C37.4454 37.9975 37.7237 38.0721 38.0293 38.1734C37.9234 38.1094 37.8193 39.4092 37.7169 39.3559C37.5377 39.2624 37.3652 39.1852 37.1996 39.1242C36.9385 39.0283 36.7166 38.9803 36.5323 38.9803C36.3309 38.9803 36.1704 39.0224 36.0543 39.1062C35.9365 39.1901 35.8785 39.304 35.8785 39.4478C35.8785 39.549 35.9126 39.6436 35.9826 39.7314C36.0526 39.8193 36.1567 39.8993 36.295 39.9712L37.0034 40.3467C37.5957 40.6611 37.9934 40.9514 38.1982 41.2176C38.4013 41.4841 38.5038 41.7997 38.5038 42.1645C38.5038 42.7292 38.3041 43.1853 37.9013 43.5329C37.5001 43.8804 36.9675 44.0542 36.3035 44.0542C36.0782 44.0542 35.8341 44.0316 35.5696 43.9863C35.3067 43.941 35.0165 43.8705 34.699 43.7746L34.9858 42.535Z" fill="#302E2D"/>
<path d="M40.6226 42.5975H42.676L41.6724 40.2109L40.6226 42.5975ZM38.6084 43.8665L41.6877 37.8937H41.7799L44.7926 43.8665H38.6084Z" fill="#302E2D"/>
<path d="M45.2461 43.8665V38.0734H46.6885L46.6509 42.7097L49.044 42.624V43.8665H45.2461Z" fill="#302E2D"/>
<path d="M53.1392 40.0767V41.75L51.1524 41.5014V42.6479H53.0777L53.5062 42.6161V43.8665H49.751V38.0734H52.9531L53.4823 38.0479L53.4738 39.268H51.1524V40.3148" fill="#302E2D"/>
</svg>
