<svg width="120" height="23" viewBox="0 0 120 23" fill="none" xmlns="http://www.w3.org/2000/svg">
<path d="M5.58231 20.4872L7.1396 14.0476L1.91669 9.71639L8.81669 9.14347L11.5 3.07056L14.1834 9.14347L21.0834 9.71639L15.8604 14.0476L17.4177 20.4872L11.5 17.0726L5.58231 20.4872Z" fill="#F54748"/>
<path d="M30.3396 20.4872L31.8291 14.0476L26.8333 9.71639L33.4333 9.14347L36 3.07056L38.5666 9.14347L45.1666 9.71639L40.1708 14.0476L41.6604 20.4872L36 17.0726L30.3396 20.4872Z" fill="#F54748"/>
<path d="M54.3396 20.4872L55.8291 14.0476L50.8333 9.71639L57.4333 9.14347L60 3.07056L62.5666 9.14347L69.1666 9.71639L64.1708 14.0476L65.6604 20.4872L60 17.0726L54.3396 20.4872Z" fill="#F54748"/>
<path d="M78.3396 20.4872L79.8291 14.0476L74.8333 9.71639L81.4333 9.14347L84 3.07056L86.5666 9.14347L93.1666 9.71639L88.1708 14.0476L89.6604 20.4872L84 17.0726L78.3396 20.4872Z" fill="#F54748"/>
<path d="M105.481 16.6601L108.5 14.9185L111.519 16.6831L110.728 13.3831L113.388 11.1831L109.89 10.8851L108.5 7.76847L107.11 10.8622L103.613 11.1601L106.272 13.3831L105.481 16.6601ZM102.582 20.4872L104.14 14.0476L98.9167 9.71639L105.817 9.14347L108.5 3.07056L111.183 9.14347L118.083 9.71639L112.86 14.0476L114.418 20.4872L108.5 17.0726L102.582 20.4872Z" fill="#F54748"/>
</svg>
