<?xml version="1.0" encoding="UTF-8"?>
<svg xmlns="http://www.w3.org/2000/svg" version="1.1" width="100" height="100" viewBox="0 0 100 100"><rect x="0" y="0" width="100" height="100" fill="#ffffff"/><g transform="scale(3.448)"><g transform="translate(0,0)"><path fill-rule="evenodd" d="M10 0L10 2L11 2L11 0ZM12 0L12 1L13 1L13 2L12 2L12 4L14 4L14 5L11 5L11 6L10 6L10 4L11 4L11 3L8 3L8 4L9 4L9 5L8 5L8 7L9 7L9 8L6 8L6 9L5 9L5 8L0 8L0 9L1 9L1 10L2 10L2 11L3 11L3 10L4 10L4 11L5 11L5 12L6 12L6 13L7 13L7 14L5 14L5 13L4 13L4 14L3 14L3 12L1 12L1 11L0 11L0 12L1 12L1 13L0 13L0 15L1 15L1 13L2 13L2 17L3 17L3 18L2 18L2 21L8 21L8 23L10 23L10 24L8 24L8 29L10 29L10 27L11 27L11 25L12 25L12 26L13 26L13 27L15 27L15 28L13 28L13 29L18 29L18 28L17 28L17 27L19 27L19 26L20 26L20 25L23 25L23 26L22 26L22 27L23 27L23 29L24 29L24 27L25 27L25 28L26 28L26 29L27 29L27 28L28 28L28 26L29 26L29 24L28 24L28 23L27 23L27 22L29 22L29 20L28 20L28 19L27 19L27 16L28 16L28 15L27 15L27 12L28 12L28 11L27 11L27 12L25 12L25 9L26 9L26 8L25 8L25 9L24 9L24 8L23 8L23 9L22 9L22 8L21 8L21 6L20 6L20 7L19 7L19 5L21 5L21 2L20 2L20 4L19 4L19 5L15 5L15 4L18 4L18 3L16 3L16 2L17 2L17 1L14 1L14 0ZM18 0L18 1L21 1L21 0ZM8 1L8 2L9 2L9 1ZM13 2L13 3L14 3L14 4L15 4L15 3L14 3L14 2ZM14 5L14 6L13 6L13 7L12 7L12 6L11 6L11 7L12 7L12 9L11 9L11 8L10 8L10 9L9 9L9 10L8 10L8 9L6 9L6 10L5 10L5 11L6 11L6 12L7 12L7 11L6 11L6 10L8 10L8 14L7 14L7 15L6 15L6 16L5 16L5 17L4 17L4 16L3 16L3 17L4 17L4 18L8 18L8 20L9 20L9 22L10 22L10 23L11 23L11 22L13 22L13 23L12 23L12 24L14 24L14 22L16 22L16 21L17 21L17 24L16 24L16 23L15 23L15 25L14 25L14 26L16 26L16 27L17 27L17 26L19 26L19 25L20 25L20 24L19 24L19 22L20 22L20 21L19 21L19 20L20 20L20 19L21 19L21 20L24 20L24 19L25 19L25 21L26 21L26 20L27 20L27 19L25 19L25 18L24 18L24 17L26 17L26 16L27 16L27 15L26 15L26 13L25 13L25 12L23 12L23 11L24 11L24 10L23 10L23 11L21 11L21 8L20 8L20 10L19 10L19 7L18 7L18 6L17 6L17 8L16 8L16 6L15 6L15 5ZM9 6L9 7L10 7L10 6ZM14 6L14 7L15 7L15 6ZM13 8L13 9L12 9L12 10L15 10L15 11L16 11L16 10L15 10L15 9L14 9L14 8ZM17 8L17 9L18 9L18 8ZM27 8L27 9L28 9L28 10L29 10L29 9L28 9L28 8ZM2 9L2 10L3 10L3 9ZM10 9L10 11L11 11L11 9ZM12 11L12 13L13 13L13 14L10 14L10 13L11 13L11 12L9 12L9 14L8 14L8 15L7 15L7 16L6 16L6 17L9 17L9 20L11 20L11 19L10 19L10 17L12 17L12 18L14 18L14 20L13 20L13 19L12 19L12 21L15 21L15 20L17 20L17 21L18 21L18 20L17 20L17 19L19 19L19 18L21 18L21 19L24 19L24 18L23 18L23 17L20 17L20 16L19 16L19 17L18 17L18 16L17 16L17 15L18 15L18 14L20 14L20 15L21 15L21 14L23 14L23 15L22 15L22 16L24 16L24 15L25 15L25 13L21 13L21 12L20 12L20 11L18 11L18 12L15 12L15 13L16 13L16 14L14 14L14 12L13 12L13 11ZM28 13L28 14L29 14L29 13ZM8 15L8 16L9 16L9 17L10 17L10 16L11 16L11 15ZM12 15L12 17L13 17L13 16L14 16L14 15ZM0 16L0 21L1 21L1 16ZM16 16L16 17L14 17L14 18L16 18L16 17L17 17L17 18L18 18L18 17L17 17L17 16ZM28 17L28 18L29 18L29 17ZM3 19L3 20L7 20L7 19ZM21 21L21 24L24 24L24 21ZM22 22L22 23L23 23L23 22ZM26 23L26 24L27 24L27 25L24 25L24 26L25 26L25 27L26 27L26 28L27 28L27 25L28 25L28 24L27 24L27 23ZM10 24L10 25L9 25L9 27L10 27L10 25L11 25L11 24ZM17 24L17 25L16 25L16 26L17 26L17 25L18 25L18 24ZM20 27L20 28L19 28L19 29L20 29L20 28L21 28L21 29L22 29L22 28L21 28L21 27ZM0 0L0 7L7 7L7 0ZM1 1L1 6L6 6L6 1ZM2 2L2 5L5 5L5 2ZM22 0L22 7L29 7L29 0ZM23 1L23 6L28 6L28 1ZM24 2L24 5L27 5L27 2ZM0 22L0 29L7 29L7 22ZM1 23L1 28L6 28L6 23ZM2 24L2 27L5 27L5 24Z" fill="#000000"/></g></g></svg>
