<?xml version="1.0" encoding="UTF-8"?>
<svg xmlns="http://www.w3.org/2000/svg" version="1.1" width="100" height="100" viewBox="0 0 100 100"><rect x="0" y="0" width="100" height="100" fill="#ffffff"/><g transform="scale(3.448)"><g transform="translate(0,0)"><path fill-rule="evenodd" d="M8 0L8 4L10 4L10 3L11 3L11 4L12 4L12 2L11 2L11 0ZM12 0L12 1L13 1L13 2L14 2L14 3L13 3L13 5L11 5L11 6L10 6L10 7L9 7L9 5L8 5L8 7L9 7L9 8L10 8L10 7L11 7L11 6L12 6L12 8L11 8L11 9L9 9L9 10L11 10L11 11L10 11L10 13L11 13L11 12L12 12L12 13L13 13L13 14L14 14L14 16L13 16L13 15L12 15L12 16L10 16L10 15L9 15L9 16L10 16L10 17L8 17L8 16L5 16L5 15L8 15L8 14L5 14L5 13L8 13L8 12L9 12L9 11L8 11L8 9L7 9L7 8L4 8L4 9L2 9L2 8L0 8L0 9L1 9L1 10L0 10L0 11L1 11L1 13L0 13L0 18L2 18L2 19L4 19L4 20L0 20L0 21L8 21L8 22L9 22L9 21L10 21L10 20L12 20L12 21L13 21L13 22L15 22L15 23L14 23L14 24L13 24L13 23L12 23L12 24L11 24L11 25L9 25L9 24L10 24L10 23L11 23L11 22L10 22L10 23L8 23L8 25L9 25L9 26L10 26L10 27L8 27L8 29L9 29L9 28L12 28L12 29L14 29L14 27L16 27L16 29L18 29L18 28L19 28L19 29L21 29L21 26L22 26L22 25L26 25L26 23L27 23L27 24L28 24L28 26L27 26L27 29L28 29L28 28L29 28L29 17L28 17L28 16L29 16L29 13L28 13L28 12L29 12L29 8L25 8L25 9L24 9L24 8L23 8L23 9L22 9L22 10L21 10L21 9L20 9L20 8L19 8L19 6L20 6L20 7L21 7L21 4L20 4L20 3L21 3L21 2L20 2L20 1L19 1L19 0L18 0L18 1L17 1L17 0L14 0L14 1L13 1L13 0ZM14 1L14 2L15 2L15 4L16 4L16 5L14 5L14 6L13 6L13 8L12 8L12 9L11 9L11 10L12 10L12 9L13 9L13 10L14 10L14 9L15 9L15 8L14 8L14 6L15 6L15 7L16 7L16 6L17 6L17 7L18 7L18 6L19 6L19 5L20 5L20 4L18 4L18 3L17 3L17 2L16 2L16 1ZM9 2L9 3L10 3L10 2ZM16 3L16 4L17 4L17 3ZM18 8L18 9L16 9L16 10L17 10L17 11L19 11L19 12L18 12L18 13L16 13L16 11L12 11L12 12L13 12L13 13L14 13L14 14L15 14L15 13L16 13L16 15L15 15L15 16L16 16L16 19L18 19L18 18L17 18L17 14L19 14L19 15L18 15L18 17L19 17L19 20L18 20L18 21L19 21L19 22L20 22L20 20L23 20L23 19L24 19L24 20L26 20L26 21L25 21L25 22L27 22L27 23L28 23L28 20L27 20L27 19L28 19L28 18L27 18L27 15L28 15L28 14L27 14L27 11L28 11L28 10L24 10L24 11L23 11L23 10L22 10L22 11L23 11L23 12L22 12L22 13L21 13L21 10L20 10L20 9L19 9L19 8ZM4 9L4 10L3 10L3 11L2 11L2 10L1 10L1 11L2 11L2 12L3 12L3 14L4 14L4 12L3 12L3 11L5 11L5 12L7 12L7 11L6 11L6 10L7 10L7 9L6 9L6 10L5 10L5 9ZM24 11L24 12L25 12L25 11ZM19 12L19 13L20 13L20 14L21 14L21 13L20 13L20 12ZM22 13L22 14L26 14L26 15L27 15L27 14L26 14L26 13ZM1 14L1 15L2 15L2 16L1 16L1 17L3 17L3 18L4 18L4 17L3 17L3 15L2 15L2 14ZM23 15L23 16L24 16L24 15ZM12 16L12 17L10 17L10 18L12 18L12 17L13 17L13 18L14 18L14 17L13 17L13 16ZM19 16L19 17L20 17L20 18L21 18L21 19L23 19L23 18L24 18L24 19L27 19L27 18L25 18L25 17L26 17L26 16L25 16L25 17L22 17L22 16L21 16L21 17L20 17L20 16ZM5 17L5 20L8 20L8 21L9 21L9 20L8 20L8 19L6 19L6 18L8 18L8 17ZM12 19L12 20L13 20L13 19ZM14 19L14 21L16 21L16 23L15 23L15 24L16 24L16 26L18 26L18 25L19 25L19 24L20 24L20 23L19 23L19 24L18 24L18 25L17 25L17 21L16 21L16 20L15 20L15 19ZM21 21L21 24L24 24L24 21ZM22 22L22 23L23 23L23 22ZM12 24L12 25L11 25L11 26L12 26L12 25L13 25L13 26L15 26L15 25L13 25L13 24ZM20 25L20 26L19 26L19 27L20 27L20 26L21 26L21 25ZM12 27L12 28L13 28L13 27ZM22 27L22 28L23 28L23 29L24 29L24 28L25 28L25 29L26 29L26 27L24 27L24 28L23 28L23 27ZM0 0L0 7L7 7L7 0ZM1 1L1 6L6 6L6 1ZM2 2L2 5L5 5L5 2ZM22 0L22 7L29 7L29 0ZM23 1L23 6L28 6L28 1ZM24 2L24 5L27 5L27 2ZM0 22L0 29L7 29L7 22ZM1 23L1 28L6 28L6 23ZM2 24L2 27L5 27L5 24Z" fill="#000000"/></g></g></svg>
