<?xml version="1.0" encoding="UTF-8"?>
<svg xmlns="http://www.w3.org/2000/svg" version="1.1" width="100" height="100" viewBox="0 0 100 100"><rect x="0" y="0" width="100" height="100" fill="#ffffff"/><g transform="scale(3.448)"><g transform="translate(0,0)"><path fill-rule="evenodd" d="M8 0L8 4L10 4L10 3L11 3L11 4L12 4L12 2L11 2L11 0ZM12 0L12 1L13 1L13 0ZM14 0L14 1L16 1L16 2L14 2L14 3L13 3L13 5L11 5L11 6L10 6L10 7L9 7L9 5L8 5L8 7L9 7L9 8L10 8L10 7L11 7L11 6L12 6L12 8L11 8L11 9L9 9L9 10L8 10L8 9L7 9L7 8L4 8L4 9L2 9L2 8L0 8L0 9L1 9L1 10L5 10L5 11L8 11L8 12L6 12L6 13L5 13L5 14L3 14L3 13L4 13L4 11L1 11L1 12L2 12L2 14L3 14L3 15L2 15L2 16L1 16L1 13L0 13L0 16L1 16L1 17L0 17L0 18L3 18L3 19L2 19L2 20L0 20L0 21L2 21L2 20L3 20L3 21L7 21L7 20L8 20L8 22L10 22L10 21L11 21L11 20L12 20L12 21L13 21L13 22L14 22L14 24L15 24L15 25L14 25L14 26L13 26L13 23L12 23L12 24L11 24L11 25L10 25L10 23L8 23L8 25L9 25L9 27L8 27L8 29L11 29L11 28L13 28L13 27L15 27L15 28L16 28L16 29L18 29L18 28L19 28L19 27L17 27L17 25L18 25L18 24L19 24L19 25L20 25L20 26L22 26L22 25L23 25L23 26L24 26L24 25L25 25L25 26L27 26L27 29L28 29L28 28L29 28L29 17L28 17L28 16L29 16L29 13L28 13L28 12L29 12L29 8L25 8L25 9L24 9L24 8L23 8L23 9L22 9L22 10L21 10L21 5L16 5L16 3L18 3L18 4L19 4L19 2L20 2L20 4L21 4L21 1L19 1L19 0L18 0L18 1L19 1L19 2L17 2L17 1L16 1L16 0ZM9 2L9 3L10 3L10 2ZM14 3L14 5L13 5L13 8L12 8L12 9L11 9L11 10L9 10L9 12L8 12L8 13L9 13L9 14L8 14L8 15L9 15L9 14L11 14L11 16L12 16L12 17L11 17L11 18L10 18L10 16L7 16L7 15L5 15L5 17L6 17L6 18L7 18L7 17L8 17L8 18L9 18L9 20L11 20L11 18L12 18L12 17L13 17L13 19L12 19L12 20L13 20L13 21L15 21L15 20L14 20L14 17L17 17L17 18L16 18L16 21L17 21L17 22L16 22L16 23L15 23L15 24L16 24L16 25L17 25L17 22L19 22L19 21L20 21L20 19L21 19L21 20L22 20L22 19L24 19L24 20L26 20L26 21L25 21L25 22L27 22L27 23L26 23L26 24L25 24L25 25L27 25L27 26L28 26L28 25L27 25L27 23L28 23L28 20L27 20L27 19L28 19L28 18L27 18L27 15L28 15L28 14L27 14L27 11L28 11L28 10L24 10L24 11L23 11L23 10L22 10L22 11L21 11L21 10L20 10L20 8L18 8L18 9L17 9L17 7L18 7L18 6L17 6L17 7L16 7L16 5L15 5L15 3ZM14 6L14 7L15 7L15 6ZM19 6L19 7L20 7L20 6ZM14 8L14 9L12 9L12 10L11 10L11 11L10 11L10 13L11 13L11 12L12 12L12 13L13 13L13 12L12 12L12 11L13 11L13 10L14 10L14 9L15 9L15 11L16 11L16 13L15 13L15 12L14 12L14 14L13 14L13 15L12 15L12 16L13 16L13 15L14 15L14 16L16 16L16 14L18 14L18 15L17 15L17 17L18 17L18 18L19 18L19 17L18 17L18 16L19 16L19 12L20 12L20 11L19 11L19 10L16 10L16 8ZM6 9L6 10L7 10L7 9ZM18 11L18 12L19 12L19 11ZM22 11L22 12L21 12L21 13L22 13L22 15L23 15L23 14L26 14L26 15L27 15L27 14L26 14L26 13L22 13L22 12L23 12L23 11ZM6 13L6 14L7 14L7 13ZM20 14L20 15L21 15L21 14ZM24 15L24 16L25 16L25 17L24 17L24 19L27 19L27 18L25 18L25 17L26 17L26 16L25 16L25 15ZM6 16L6 17L7 17L7 16ZM20 16L20 17L22 17L22 18L21 18L21 19L22 19L22 18L23 18L23 17L22 17L22 16ZM4 18L4 19L3 19L3 20L4 20L4 19L5 19L5 20L7 20L7 19L5 19L5 18ZM17 19L17 21L18 21L18 20L19 20L19 19ZM21 21L21 24L24 24L24 21ZM22 22L22 23L23 23L23 22ZM11 25L11 26L10 26L10 27L9 27L9 28L11 28L11 26L12 26L12 25ZM16 27L16 28L17 28L17 27ZM20 27L20 29L21 29L21 27ZM22 27L22 28L23 28L23 29L24 29L24 28L25 28L25 29L26 29L26 27L24 27L24 28L23 28L23 27ZM0 0L0 7L7 7L7 0ZM1 1L1 6L6 6L6 1ZM2 2L2 5L5 5L5 2ZM22 0L22 7L29 7L29 0ZM23 1L23 6L28 6L28 1ZM24 2L24 5L27 5L27 2ZM0 22L0 29L7 29L7 22ZM1 23L1 28L6 28L6 23ZM2 24L2 27L5 27L5 24Z" fill="#000000"/></g></g></svg>
