<?xml version="1.0" encoding="UTF-8"?>
<svg xmlns="http://www.w3.org/2000/svg" version="1.1" width="100" height="100" viewBox="0 0 100 100"><rect x="0" y="0" width="100" height="100" fill="#ffffff"/><g transform="scale(3.448)"><g transform="translate(0,0)"><path fill-rule="evenodd" d="M9 0L9 1L10 1L10 2L8 2L8 3L9 3L9 4L10 4L10 5L9 5L9 6L8 6L8 8L4 8L4 9L3 9L3 8L0 8L0 10L1 10L1 11L0 11L0 13L1 13L1 14L0 14L0 16L1 16L1 18L0 18L0 19L1 19L1 20L0 20L0 21L1 21L1 20L2 20L2 21L3 21L3 20L4 20L4 19L5 19L5 20L6 20L6 21L7 21L7 20L8 20L8 25L9 25L9 26L8 26L8 29L10 29L10 28L9 28L9 27L11 27L11 28L13 28L13 29L14 29L14 26L13 26L13 27L11 27L11 26L12 26L12 25L14 25L14 24L15 24L15 25L16 25L16 27L15 27L15 28L17 28L17 29L18 29L18 28L19 28L19 29L21 29L21 27L22 27L22 26L20 26L20 27L19 27L19 25L18 25L18 24L19 24L19 23L20 23L20 25L24 25L24 26L23 26L23 27L24 27L24 28L22 28L22 29L24 29L24 28L25 28L25 26L26 26L26 27L27 27L27 29L29 29L29 28L28 28L28 27L29 27L29 25L28 25L28 23L29 23L29 21L26 21L26 22L25 22L25 20L26 20L26 18L27 18L27 20L28 20L28 19L29 19L29 16L28 16L28 15L29 15L29 12L28 12L28 11L29 11L29 9L28 9L28 10L26 10L26 9L27 9L27 8L26 8L26 9L25 9L25 10L24 10L24 11L25 11L25 14L23 14L23 12L21 12L21 13L20 13L20 12L18 12L18 11L17 11L17 10L19 10L19 9L21 9L21 10L20 10L20 11L21 11L21 10L23 10L23 8L21 8L21 6L20 6L20 4L21 4L21 3L18 3L18 4L19 4L19 6L18 6L18 7L17 7L17 2L20 2L20 0L18 0L18 1L17 1L17 0L12 0L12 1L10 1L10 0ZM13 1L13 3L12 3L12 2L11 2L11 3L12 3L12 4L11 4L11 5L10 5L10 6L9 6L9 7L10 7L10 6L11 6L11 8L12 8L12 10L10 10L10 8L9 8L9 9L6 9L6 10L5 10L5 9L4 9L4 10L5 10L5 11L4 11L4 12L1 12L1 13L4 13L4 14L5 14L5 13L6 13L6 14L7 14L7 15L6 15L6 16L7 16L7 15L11 15L11 16L12 16L12 18L11 18L11 17L9 17L9 16L8 16L8 17L6 17L6 18L7 18L7 19L6 19L6 20L7 20L7 19L8 19L8 20L9 20L9 25L10 25L10 26L11 26L11 25L10 25L10 23L11 23L11 24L12 24L12 23L11 23L11 21L12 21L12 20L13 20L13 19L17 19L17 18L16 18L16 16L14 16L14 17L13 17L13 16L12 16L12 15L11 15L11 13L12 13L12 12L13 12L13 11L14 11L14 12L15 12L15 13L13 13L13 14L14 14L14 15L17 15L17 14L18 14L18 15L20 15L20 16L22 16L22 15L21 15L21 14L20 14L20 13L17 13L17 11L16 11L16 10L17 10L17 9L15 9L15 11L14 11L14 9L13 9L13 8L12 8L12 6L13 6L13 7L14 7L14 8L16 8L16 6L15 6L15 7L14 7L14 6L13 6L13 5L15 5L15 3L16 3L16 2L14 2L14 1ZM19 6L19 8L18 8L18 9L19 9L19 8L20 8L20 6ZM2 9L2 10L3 10L3 9ZM6 10L6 11L7 11L7 10ZM8 10L8 11L10 11L10 10ZM25 10L25 11L26 11L26 13L27 13L27 14L25 14L25 15L26 15L26 16L24 16L24 15L23 15L23 17L24 17L24 20L25 20L25 18L26 18L26 17L27 17L27 18L28 18L28 17L27 17L27 14L28 14L28 13L27 13L27 11L26 11L26 10ZM11 11L11 12L12 12L12 11ZM6 12L6 13L7 13L7 14L9 14L9 13L8 13L8 12ZM16 13L16 14L17 14L17 13ZM2 14L2 15L1 15L1 16L2 16L2 18L1 18L1 19L2 19L2 20L3 20L3 14ZM4 15L4 17L5 17L5 15ZM18 16L18 18L19 18L19 19L20 19L20 17L19 17L19 16ZM8 17L8 19L11 19L11 20L10 20L10 21L11 21L11 20L12 20L12 19L11 19L11 18L9 18L9 17ZM21 18L21 20L23 20L23 18ZM14 20L14 22L13 22L13 23L15 23L15 24L16 24L16 23L19 23L19 22L16 22L16 21L15 21L15 20ZM18 20L18 21L19 21L19 20ZM21 21L21 24L24 24L24 21ZM22 22L22 23L23 23L23 22ZM26 22L26 23L25 23L25 24L26 24L26 26L27 26L27 27L28 27L28 26L27 26L27 22ZM0 0L0 7L7 7L7 0ZM1 1L1 6L6 6L6 1ZM2 2L2 5L5 5L5 2ZM22 0L22 7L29 7L29 0ZM23 1L23 6L28 6L28 1ZM24 2L24 5L27 5L27 2ZM0 22L0 29L7 29L7 22ZM1 23L1 28L6 28L6 23ZM2 24L2 27L5 27L5 24Z" fill="#000000"/></g></g></svg>
