<?xml version="1.0" encoding="UTF-8"?>
<svg xmlns="http://www.w3.org/2000/svg" version="1.1" width="100" height="100" viewBox="0 0 100 100"><rect x="0" y="0" width="100" height="100" fill="#ffffff"/><g transform="scale(3.448)"><g transform="translate(0,0)"><path fill-rule="evenodd" d="M10 0L10 2L11 2L11 0ZM12 0L12 1L14 1L14 3L13 3L13 2L12 2L12 4L15 4L15 2L16 2L16 3L17 3L17 4L18 4L18 3L17 3L17 2L19 2L19 5L20 5L20 3L21 3L21 0L18 0L18 1L17 1L17 0L16 0L16 1L14 1L14 0ZM8 1L8 2L9 2L9 1ZM19 1L19 2L20 2L20 1ZM8 3L8 4L9 4L9 5L8 5L8 7L9 7L9 8L6 8L6 9L10 9L10 11L11 11L11 9L12 9L12 10L13 10L13 11L12 11L12 13L14 13L14 16L15 16L15 15L16 15L16 16L17 16L17 18L14 18L14 17L12 17L12 15L13 15L13 14L10 14L10 15L8 15L8 16L6 16L6 17L8 17L8 16L9 16L9 17L10 17L10 16L11 16L11 17L12 17L12 18L13 18L13 19L12 19L12 21L13 21L13 20L14 20L14 21L17 21L17 22L15 22L15 23L14 23L14 24L15 24L15 23L16 23L16 24L17 24L17 25L18 25L18 26L19 26L19 25L18 25L18 24L17 24L17 22L19 22L19 23L20 23L20 27L19 27L19 28L21 28L21 29L22 29L22 28L21 28L21 25L25 25L25 26L22 26L22 27L23 27L23 29L24 29L24 27L25 27L25 28L26 28L26 29L27 29L27 28L28 28L28 26L29 26L29 24L28 24L28 23L27 23L27 22L29 22L29 20L28 20L28 19L27 19L27 16L28 16L28 15L27 15L27 12L28 12L28 11L27 11L27 12L25 12L25 13L21 13L21 12L22 12L22 11L23 11L23 12L24 12L24 11L25 11L25 9L26 9L26 8L25 8L25 9L24 9L24 8L23 8L23 9L22 9L22 8L20 8L20 9L19 9L19 10L17 10L17 11L16 11L16 10L14 10L14 9L18 9L18 8L15 8L15 6L16 6L16 7L17 7L17 6L16 6L16 5L14 5L14 8L13 8L13 9L12 9L12 7L13 7L13 5L11 5L11 6L10 6L10 4L11 4L11 3ZM9 6L9 7L10 7L10 6ZM11 6L11 7L12 7L12 6ZM18 6L18 7L19 7L19 6ZM20 6L20 7L21 7L21 6ZM0 8L0 9L4 9L4 10L1 10L1 11L0 11L0 12L1 12L1 11L4 11L4 10L5 10L5 12L6 12L6 13L5 13L5 14L6 14L6 15L7 15L7 14L6 14L6 13L11 13L11 12L8 12L8 11L9 11L9 10L8 10L8 11L7 11L7 10L5 10L5 8ZM10 8L10 9L11 9L11 8ZM27 8L27 9L28 9L28 10L29 10L29 9L28 9L28 8ZM20 9L20 10L19 10L19 11L17 11L17 12L18 12L18 13L15 13L15 14L17 14L17 16L18 16L18 17L20 17L20 18L18 18L18 19L16 19L16 20L18 20L18 21L19 21L19 20L22 20L22 19L23 19L23 20L24 20L24 19L25 19L25 21L26 21L26 20L27 20L27 19L25 19L25 18L24 18L24 19L23 19L23 18L22 18L22 17L26 17L26 16L27 16L27 15L26 15L26 13L25 13L25 16L24 16L24 15L23 15L23 16L22 16L22 14L21 14L21 13L20 13L20 12L21 12L21 9ZM23 10L23 11L24 11L24 10ZM6 11L6 12L7 12L7 11ZM13 11L13 12L15 12L15 11ZM0 13L0 14L1 14L1 15L0 15L0 21L1 21L1 18L2 18L2 20L3 20L3 21L4 21L4 20L5 20L5 21L7 21L7 20L6 20L6 19L8 19L8 23L9 23L9 24L8 24L8 29L10 29L10 28L11 28L11 27L10 27L10 26L11 26L11 25L12 25L12 26L13 26L13 27L12 27L12 29L13 29L13 28L14 28L14 29L18 29L18 28L14 28L14 27L16 27L16 26L15 26L15 25L12 25L12 23L13 23L13 22L11 22L11 18L10 18L10 21L9 21L9 18L6 18L6 19L4 19L4 18L5 18L5 17L4 17L4 18L2 18L2 17L1 17L1 15L2 15L2 16L5 16L5 15L2 15L2 14L4 14L4 13ZM19 13L19 14L20 14L20 13ZM28 13L28 14L29 14L29 13ZM18 15L18 16L19 16L19 15ZM20 16L20 17L21 17L21 16ZM28 17L28 18L29 18L29 17ZM21 18L21 19L22 19L22 18ZM14 19L14 20L15 20L15 19ZM21 21L21 24L24 24L24 21ZM22 22L22 23L23 23L23 22ZM26 23L26 24L25 24L25 25L26 25L26 24L27 24L27 23ZM10 24L10 25L11 25L11 24ZM25 26L25 27L26 27L26 28L27 28L27 26ZM9 27L9 28L10 28L10 27ZM0 0L0 7L7 7L7 0ZM1 1L1 6L6 6L6 1ZM2 2L2 5L5 5L5 2ZM22 0L22 7L29 7L29 0ZM23 1L23 6L28 6L28 1ZM24 2L24 5L27 5L27 2ZM0 22L0 29L7 29L7 22ZM1 23L1 28L6 28L6 23ZM2 24L2 27L5 27L5 24Z" fill="#000000"/></g></g></svg>
