<?xml version="1.0" encoding="UTF-8"?>
<svg xmlns="http://www.w3.org/2000/svg" version="1.1" width="100" height="100" viewBox="0 0 100 100"><rect x="0" y="0" width="100" height="100" fill="#ffffff"/><g transform="scale(3.448)"><g transform="translate(0,0)"><path fill-rule="evenodd" d="M8 0L8 1L9 1L9 2L8 2L8 5L9 5L9 4L11 4L11 5L10 5L10 10L8 10L8 11L7 11L7 10L6 10L6 11L4 11L4 12L3 12L3 13L4 13L4 14L3 14L3 16L4 16L4 17L5 17L5 16L4 16L4 14L6 14L6 15L7 15L7 14L8 14L8 13L11 13L11 14L9 14L9 15L10 15L10 16L6 16L6 17L8 17L8 18L5 18L5 19L4 19L4 18L3 18L3 20L1 20L1 21L3 21L3 20L4 20L4 21L7 21L7 20L9 20L9 21L8 21L8 22L10 22L10 23L11 23L11 25L10 25L10 24L9 24L9 25L8 25L8 29L10 29L10 26L12 26L12 28L11 28L11 29L12 29L12 28L14 28L14 27L15 27L15 26L16 26L16 27L17 27L17 26L18 26L18 27L19 27L19 28L18 28L18 29L19 29L19 28L20 28L20 29L22 29L22 26L18 26L18 24L20 24L20 25L24 25L24 26L25 26L25 25L26 25L26 26L27 26L27 25L28 25L28 27L27 27L27 29L28 29L28 27L29 27L29 23L28 23L28 22L29 22L29 21L27 21L27 18L28 18L28 15L29 15L29 13L27 13L27 12L26 12L26 11L28 11L28 12L29 12L29 11L28 11L28 10L29 10L29 8L28 8L28 10L26 10L26 11L25 11L25 13L27 13L27 14L24 14L24 12L23 12L23 13L22 13L22 12L20 12L20 11L24 11L24 10L25 10L25 9L27 9L27 8L24 8L24 10L23 10L23 9L22 9L22 8L21 8L21 6L20 6L20 5L21 5L21 4L20 4L20 3L21 3L21 2L20 2L20 3L19 3L19 2L18 2L18 3L17 3L17 5L16 5L16 4L15 4L15 3L16 3L16 2L17 2L17 0L16 0L16 2L13 2L13 1L14 1L14 0L12 0L12 1L11 1L11 0L10 0L10 1L9 1L9 0ZM18 0L18 1L21 1L21 0ZM11 2L11 4L12 4L12 3L13 3L13 2ZM18 3L18 4L19 4L19 3ZM13 4L13 5L12 5L12 6L11 6L11 8L12 8L12 6L13 6L13 9L14 9L14 12L18 12L18 13L20 13L20 12L18 12L18 11L20 11L20 10L21 10L21 9L20 9L20 10L19 10L19 9L17 9L17 7L18 7L18 5L17 5L17 7L16 7L16 5L15 5L15 7L14 7L14 6L13 6L13 5L14 5L14 4ZM8 6L8 7L9 7L9 6ZM19 6L19 8L20 8L20 6ZM0 8L0 10L1 10L1 11L3 11L3 10L5 10L5 9L4 9L4 8ZM6 8L6 9L7 9L7 8ZM8 8L8 9L9 9L9 8ZM14 8L14 9L16 9L16 8ZM2 9L2 10L3 10L3 9ZM11 9L11 10L12 10L12 9ZM16 10L16 11L17 11L17 10ZM6 11L6 12L4 12L4 13L6 13L6 14L7 14L7 13L8 13L8 12L9 12L9 11L8 11L8 12L7 12L7 11ZM11 11L11 13L12 13L12 12L13 12L13 11ZM0 12L0 13L1 13L1 14L2 14L2 12ZM6 12L6 13L7 13L7 12ZM13 13L13 14L12 14L12 16L10 16L10 17L9 17L9 18L8 18L8 19L9 19L9 20L10 20L10 19L9 19L9 18L11 18L11 19L12 19L12 20L11 20L11 21L10 21L10 22L11 22L11 23L14 23L14 22L15 22L15 23L16 23L16 24L12 24L12 26L13 26L13 27L14 27L14 26L15 26L15 25L16 25L16 26L17 26L17 24L18 24L18 23L16 23L16 22L17 22L17 19L15 19L15 21L13 21L13 18L15 18L15 17L14 17L14 15L13 15L13 14L15 14L15 16L16 16L16 17L18 17L18 19L19 19L19 21L20 21L20 19L21 19L21 20L22 20L22 18L24 18L24 19L23 19L23 20L26 20L26 19L25 19L25 18L26 18L26 17L27 17L27 15L24 15L24 14L23 14L23 15L22 15L22 14L20 14L20 15L19 15L19 17L18 17L18 14L17 14L17 13L16 13L16 14L15 14L15 13ZM1 15L1 16L2 16L2 15ZM16 15L16 16L17 16L17 15ZM21 15L21 16L22 16L22 15ZM23 15L23 17L25 17L25 16L24 16L24 15ZM12 16L12 17L13 17L13 16ZM1 17L1 18L0 18L0 19L1 19L1 18L2 18L2 17ZM5 19L5 20L7 20L7 19ZM21 21L21 24L24 24L24 21ZM22 22L22 23L23 23L23 22ZM26 22L26 24L28 24L28 23L27 23L27 22ZM13 25L13 26L14 26L14 25ZM16 28L16 29L17 29L17 28ZM23 28L23 29L24 29L24 28ZM25 28L25 29L26 29L26 28ZM0 0L0 7L7 7L7 0ZM1 1L1 6L6 6L6 1ZM2 2L2 5L5 5L5 2ZM22 0L22 7L29 7L29 0ZM23 1L23 6L28 6L28 1ZM24 2L24 5L27 5L27 2ZM0 22L0 29L7 29L7 22ZM1 23L1 28L6 28L6 23ZM2 24L2 27L5 27L5 24Z" fill="#000000"/></g></g></svg>
